<?xml version="1.0" standalone="no"?>
<!DOCTYPE svg PUBLIC "-//W3C//DTD SVG 20010904//EN"
 "http://www.w3.org/TR/2001/REC-SVG-20010904/DTD/svg10.dtd">
<svg version="1.0" xmlns="http://www.w3.org/2000/svg"
 width="48.000000pt" height="48.000000pt" viewBox="0 0 48.000000 48.000000"
 preserveAspectRatio="xMidYMid meet">

<g transform="translate(0.000000,48.000000) scale(0.100000,-0.100000)"
fill="#6722FF" stroke="none">
<path d="M105 430 c-13 -21 8 -30 68 -30 l61 0 -32 -33 c-18 -18 -32 -38 -32
-44 0 -19 20 -26 35 -13 13 11 15 1 15 -70 0 -71 -2 -81 -15 -70 -16 13 -35 6
-35 -14 0 -7 14 -25 31 -42 l31 -29 -64 -5 c-47 -4 -63 -9 -63 -20 0 -13 22
-15 135 -15 113 0 135 2 135 15 0 11 -16 16 -63 20 l-64 5 31 29 c17 17 31 35
31 42 0 20 -19 27 -35 14 -13 -11 -15 -1 -15 70 0 71 2 81 15 70 16 -13 35 -6
35 14 0 7 -14 25 -31 42 l-31 29 64 5 c47 4 63 9 63 20 0 12 -23 15 -132 18
-82 2 -134 -1 -138 -8z"/>
</g>
</svg>
