<svg width="800" height="800" viewBox="0 0 800 800" fill="none" xmlns="http://www.w3.org/2000/svg">
<path d="M769.128 400.064C769.128 603.892 603.892 769.128 400.064 769.128C196.236 769.128 31 603.893 31 400.064C31 196.236 196.236 31 400.064 31C603.893 31 769.128 196.236 769.128 400.064Z" fill="#6B27FD" stroke="#5B28C9" stroke-width="30"/>
<path d="M321.175 576.786C310.979 576.786 300.782 572.895 293.003 565.117L176.668 448.782C161.111 433.225 161.111 407.998 176.668 392.44C192.229 376.882 217.453 376.882 233.011 392.44L321.175 480.601L567.106 234.668C582.667 219.111 607.89 219.111 623.448 234.668C639.006 250.226 639.006 275.453 623.448 291.011L349.345 565.115C341.567 572.895 331.373 576.786 321.175 576.786Z" fill="#DAE500"/>
</svg>
