<svg width="257" height="257" viewBox="0 0 257 257" fill="none" xmlns="http://www.w3.org/2000/svg">
<path d="M17.1969 254.582C10.8251 257.994 5.65237 257.162 2.27544 252.463C-1.22716 247.589 -0.413612 242.613 4.8178 237.38C63.8368 178.348 122.861 119.322 181.887 60.2967C200.266 41.9176 218.665 23.5579 237.024 5.15865C240.083 2.09279 243.385 -0.409156 247.988 0.49252C252.015 1.2816 254.92 3.66289 256.225 7.68416C257.54 11.7333 256.495 15.2817 253.586 18.2393C246.926 25.0094 240.203 31.7176 233.488 38.4334C162.335 109.599 91.178 180.761 20.0199 251.923C19.1955 252.747 18.3412 253.542 17.1969 254.582Z" fill="#c5c5c5"/>
<path d="M162.222 26.8089C97.8657 4.89946 33.9718 49.2566 22.6615 110.046C18.7966 130.819 21.3498 150.731 29.4783 170.077C30.252 171.918 31.0411 173.756 31.724 175.632C33.739 181.167 31.528 186.8 26.5103 189.04C21.2407 191.392 15.7466 189.569 12.9757 184.134C6.87568 172.171 3.04533 159.416 1.21504 146.161C-7.004 86.6391 27.4362 33.9288 75.4369 11.8914C110.837 -4.36089 146.341 -3.61613 181.727 12.0592C188.564 15.088 191.014 20.7135 188.457 26.5062C185.944 32.2016 179.897 34.0412 173.249 31.2121C169.728 29.7137 166.151 28.3464 162.222 26.8089Z" fill="#c5c5c5"/>
<path d="M197.334 210.387C222.889 187.911 236.382 160.162 236.021 126.271C235.868 111.992 232.38 98.2768 226.561 85.1919C225.352 82.4717 223.809 79.7531 224.458 76.6086C225.432 71.8916 228.29 68.8963 233.099 68.0903C238.121 67.2487 241.985 69.1295 244.243 73.7035C250.107 85.5808 254.115 98.0775 255.723 111.235C260.676 151.757 248.783 187.034 221.323 216.844C200.863 239.055 175.306 252.183 145.153 255.871C120.997 258.826 97.683 255.756 75.4038 245.752C69.7574 243.217 67.0605 238.998 67.7222 234.2C68.7159 226.996 75.4442 223.236 82.8041 226.174C90.8557 229.388 98.8965 232.562 107.45 234.163C141.028 240.446 170.744 231.983 197.334 210.387Z" fill="#c5c5c5"/>
</svg>
