<?xml version="1.0" standalone="no"?>
<!DOCTYPE svg PUBLIC "-//W3C//DTD SVG 20010904//EN"
 "http://www.w3.org/TR/2001/REC-SVG-20010904/DTD/svg10.dtd">
<svg version="1.0" xmlns="http://www.w3.org/2000/svg"
 width="48.000000pt" height="48.000000pt" viewBox="0 0 48.000000 48.000000"
 preserveAspectRatio="xMidYMid meet">

<g transform="translate(0.000000,48.000000) scale(0.100000,-0.100000)"
fill="#6722FF" stroke="none">
<path d="M45 368 c-3 -8 -4 -70 -3 -139 3 -102 6 -124 18 -124 11 0 16 16 20
63 l5 64 24 -26 c30 -32 66 -36 58 -6 -5 19 0 20 73 20 73 0 78 -1 73 -20 -8
-30 28 -26 58 6 l24 26 5 -64 c4 -47 9 -63 20 -63 13 0 15 22 15 135 0 113 -2
135 -15 135 -11 0 -16 -16 -20 -63 l-5 -64 -24 26 c-30 32 -66 36 -58 6 5 -19
0 -20 -73 -20 -73 0 -78 1 -73 20 8 30 -28 26 -58 -6 l-24 -26 -5 63 c-5 59
-23 89 -35 57z"/>
</g>
</svg>
