<svg width="23" height="23" viewBox="0 0 23 23" fill="none" xmlns="http://www.w3.org/2000/svg">
<rect x="1" y="1" width="21" height="20.4062" rx="10.2031" stroke="#6722FF" stroke-width="2"/>
<path d="M10.416 14.9414V11.9531C10.416 11.8229 10.3509 11.7578 10.2207 11.7578H7.4082C7.12174 11.7578 6.87435 11.6602 6.66602 11.4648C6.4707 11.2565 6.37305 11.0091 6.37305 10.7227C6.37305 10.4362 6.4707 10.1953 6.66602 10C6.87435 9.79167 7.12174 9.6875 7.4082 9.6875H10.2207C10.3509 9.6875 10.416 9.6224 10.416 9.49219V6.50391C10.416 6.20443 10.5202 5.95052 10.7285 5.74219C10.9368 5.53385 11.1908 5.42969 11.4902 5.42969C11.8027 5.42969 12.0632 5.53385 12.2715 5.74219C12.4798 5.95052 12.584 6.20443 12.584 6.50391V9.49219C12.584 9.6224 12.6491 9.6875 12.7793 9.6875H15.5918C15.8783 9.6875 16.1191 9.79167 16.3145 10C16.5228 10.1953 16.627 10.4362 16.627 10.7227C16.627 11.0091 16.5228 11.2565 16.3145 11.4648C16.1191 11.6602 15.8783 11.7578 15.5918 11.7578H12.7793C12.6491 11.7578 12.584 11.8229 12.584 11.9531V14.9414C12.584 15.2409 12.4798 15.4948 12.2715 15.7031C12.0632 15.9115 11.8027 16.0156 11.4902 16.0156C11.1908 16.0156 10.9368 15.9115 10.7285 15.7031C10.5202 15.4948 10.416 15.2409 10.416 14.9414Z" fill="#6722FF"/>
</svg>
