<?xml version="1.0" encoding="utf-8"?>
<!-- Generator: Adobe Illustrator 28.3.0, SVG Export Plug-In . SVG Version: 6.00 Build 0)  -->
<svg version="1.1" id="Capa_1" xmlns="http://www.w3.org/2000/svg" xmlns:xlink="http://www.w3.org/1999/xlink" x="0px" y="0px"
	 viewBox="0 0 541.1 541.1" style="enable-background:new 0 0 541.1 541.1;" xml:space="preserve">
<style type="text/css">
	.st0{fill:#D8FF00;}
</style>
<g>
	<g>
		<path class="st0" d="M256.6,16.4l-33.7,29.5c-1,0.5-1.8,1.8-1.8,2.9v27.3c0,1.1,0.8,1.6,1.8,1.1l33.7-29.5c1-0.5,2.6-0.5,3.6,0
			l33,29.5c1,0.5,1.8,0,1.8-1.1V48.8c0-2.1-2.3-3.3-3.6-4.5c-1.8-1.6-26.2-23.5-31.2-27.9C259.2,15.9,257.6,15.9,256.6,16.4z"/>
		<path class="st0" d="M293.2,127.8c1,0.5,1.8,0,1.8-1.1c0,0,0-27.3,0-27.3c0-2.5-5.1-5.8-6.9-7.5c-3.2-2.9-27.5-24.8-27.8-24.9
			c-1-0.5-2.6-0.5-3.6,0l-33.7,29.5c-1,0.5-1.8,1.8-1.8,2.9v27.3c0,1.1,0.8,1.6,1.8,1.1l33.7-29.5c1-0.5,2.6-0.5,3.6,0L293.2,127.8z
			"/>
	</g>
</g>
<g>
	<g>
		<path class="st0" d="M256.6,120.4l-33.7,29.5c-1,0.5-1.8,1.8-1.8,2.9v27.3c0,1.1,0.8,1.6,1.8,1.1l33.7-29.5c1-0.5,2.6-0.5,3.6,0
			l33,29.5c1,0.5,1.8,0,1.8-1.1v-27.3c0-2.1-2.3-3.3-3.6-4.5c-1.8-1.6-26.2-23.5-31.2-27.9C259.2,119.9,257.6,119.9,256.6,120.4z"/>
		<path class="st0" d="M293.2,231.8c1,0.5,1.8,0,1.8-1.1c0,0,0-27.3,0-27.3c0-2.5-5.1-5.8-6.9-7.5c-3.2-2.9-27.5-24.8-27.8-24.9
			c-1-0.5-2.6-0.5-3.6,0l-33.7,29.5c-1,0.5-1.8,1.8-1.8,2.9v27.3c0,1.1,0.8,1.6,1.8,1.1l33.7-29.5c1-0.5,2.6-0.5,3.6,0L293.2,231.8z
			"/>
	</g>
</g>
<g>
	<g>
		<path class="st0" d="M256.6,224.4l-33.7,29.5c-1,0.5-1.8,1.8-1.8,2.9v27.3c0,1.1,0.8,1.6,1.8,1.1l33.7-29.5c1-0.5,2.6-0.5,3.6,0
			l33,29.5c1,0.5,1.8,0,1.8-1.1v-27.3c0-2.1-2.3-3.3-3.6-4.5c-1.8-1.6-26.2-23.5-31.2-27.9C259.2,223.9,257.6,223.9,256.6,224.4z"/>
		<path class="st0" d="M293.2,335.8c1,0.5,1.8,0,1.8-1.1c0,0,0-27.3,0-27.3c0-2.5-5.1-5.8-6.9-7.5c-3.2-2.9-27.5-24.8-27.8-24.9
			c-1-0.5-2.6-0.5-3.6,0l-33.7,29.5c-1,0.5-1.8,1.8-1.8,2.9v27.3c0,1.1,0.8,1.6,1.8,1.1l33.7-29.5c1-0.5,2.6-0.5,3.6,0L293.2,335.8z
			"/>
	</g>
</g>
</svg>
