<svg width="16" height="13" viewBox="0 0 16 13" fill="none" xmlns="http://www.w3.org/2000/svg">
<path d="M2.20622 12.4363H13.2223C14.6906 12.4363 15.4286 11.6751 15.4286 10.152V2.29224C15.4286 0.769126 14.6906 0 13.2223 0H2.20622C0.738005 0 0 0.769126 0 2.29224V10.152C0 11.6751 0.737706 12.4363 2.20622 12.4363ZM1.13129 2.35912C1.13129 1.58999 1.52487 1.19091 2.22721 1.19091H13.2083C13.9037 1.19091 14.2973 1.58999 14.2973 2.35912V2.97997H1.13129V2.35912ZM2.22721 11.2467C1.52457 11.2467 1.13129 10.8545 1.13129 10.0857V4.65829H14.2973V10.0854C14.2973 10.8542 13.9037 11.2463 13.2083 11.2463L2.22721 11.2467ZM3.03506 9.05758H4.75657C5.17113 9.05758 5.44511 8.76923 5.44511 8.34776V6.97987C5.44511 6.56596 5.17113 6.27005 4.75657 6.27005H3.03506C2.62049 6.27005 2.34651 6.56596 2.34651 6.97987V8.34776C2.34651 8.76923 2.62049 9.05758 3.03506 9.05758Z" fill="#181818"/>
</svg>
