<svg width="18" height="14" viewBox="0 0 18 14" fill="none" xmlns="http://www.w3.org/2000/svg">
<path d="M3.2723 13.9305V13.0039C3.2723 12.6486 3.05616 12.417 2.68568 12.417C2.50048 12.417 2.29981 12.4788 2.16087 12.6796C2.05287 12.5097 1.89854 12.417 1.667 12.417C1.51259 12.417 1.35832 12.4633 1.23479 12.6332V12.4479H0.910645V13.9305H1.23479V13.1119C1.23479 12.8495 1.37372 12.7258 1.58986 12.7258C1.80586 12.7258 1.914 12.8649 1.914 13.1119V13.9305H2.23814V13.1119C2.23814 12.8495 2.39241 12.7258 2.59308 12.7258C2.80922 12.7258 2.91722 12.8649 2.91722 13.1119V13.9305H3.2723ZM8.07261 12.4479H7.54786V12H7.22372V12.4479H6.93045V12.7413H7.22365V13.4209C7.22365 13.7607 7.36259 13.9614 7.73307 13.9614C7.872 13.9614 8.02627 13.9151 8.13441 13.8533L8.04174 13.5753C7.94914 13.637 7.84114 13.6525 7.76393 13.6525C7.6096 13.6525 7.54786 13.5599 7.54786 13.4054V12.7413H8.07261V12.4479ZM10.8201 12.4169C10.6349 12.4169 10.5115 12.5097 10.4343 12.6332V12.4479H10.1101V13.9305H10.4343V13.0965C10.4343 12.8495 10.5423 12.7104 10.7429 12.7104C10.8047 12.7104 10.8819 12.7259 10.9436 12.7413L11.0362 12.4325C10.9745 12.417 10.8819 12.417 10.8201 12.417M6.66804 12.5715C6.51364 12.4634 6.29757 12.4171 6.06603 12.4171C5.69562 12.4171 5.44868 12.6024 5.44868 12.8958C5.44868 13.143 5.63389 13.2819 5.95803 13.3283L6.11236 13.3437C6.28217 13.3746 6.37477 13.4209 6.37477 13.4982C6.37477 13.6062 6.2513 13.6835 6.03516 13.6835C5.81909 13.6835 5.64928 13.6062 5.54121 13.5291L5.38688 13.7761C5.55668 13.8997 5.78822 13.9614 6.01969 13.9614C6.4519 13.9614 6.69891 13.7607 6.69891 13.4827C6.69891 13.2201 6.49824 13.0811 6.1895 13.0348L6.03516 13.0194C5.89622 13.0039 5.78822 12.9731 5.78822 12.8804C5.78822 12.7723 5.89622 12.7105 6.06603 12.7105C6.2513 12.7105 6.4365 12.7877 6.52911 12.834L6.66804 12.5715ZM15.281 12.4171C15.0957 12.4171 14.9722 12.5097 14.895 12.6333V12.448H14.5709V13.9306H14.895V13.0966C14.895 12.8495 15.0031 12.7105 15.2037 12.7105C15.2655 12.7105 15.3427 12.726 15.4044 12.7414L15.497 12.4326C15.4353 12.4171 15.3427 12.4171 15.281 12.4171ZM11.1443 13.1893C11.1443 13.6371 11.4529 13.9614 11.9315 13.9614C12.1476 13.9614 12.3019 13.9151 12.4562 13.7916L12.3019 13.5291C12.1784 13.6217 12.055 13.668 11.916 13.668C11.6536 13.668 11.4684 13.4827 11.4684 13.1893C11.4684 12.9113 11.6536 12.7259 11.916 12.7105C12.055 12.7105 12.1784 12.7568 12.3019 12.8495L12.4562 12.587C12.3019 12.4634 12.1476 12.4171 11.9315 12.4171C11.4529 12.4171 11.1443 12.7414 11.1443 13.1893ZM14.1387 13.1893V12.448H13.8146V12.6333C13.7065 12.4943 13.5522 12.4171 13.3515 12.4171C12.9348 12.4171 12.6106 12.7414 12.6106 13.1893C12.6106 13.6371 12.9348 13.9614 13.3515 13.9614C13.5676 13.9614 13.722 13.8843 13.8146 13.7452V13.9306H14.1387V13.1893ZM12.9502 13.1893C12.9502 12.9267 13.12 12.7105 13.3978 12.7105C13.6602 12.7105 13.8455 12.9113 13.8455 13.1893C13.8455 13.4518 13.6602 13.668 13.3978 13.668C13.12 13.6525 12.9502 13.4518 12.9502 13.1893ZM9.07596 12.4171C8.64375 12.4171 8.33501 12.7259 8.33501 13.1893C8.33501 13.6526 8.64368 13.9614 9.09136 13.9614C9.30743 13.9614 9.52357 13.8997 9.69338 13.7607L9.53897 13.5291C9.4155 13.6217 9.26117 13.6835 9.10683 13.6835C8.90616 13.6835 8.70549 13.5908 8.65915 13.3282H9.75511V13.2047C9.77058 12.7259 9.49278 12.4171 9.07596 12.4171ZM9.0759 12.695C9.2765 12.695 9.4155 12.8186 9.4463 13.0503H8.67455C8.70542 12.8495 8.84436 12.695 9.0759 12.695ZM17.1177 13.1893V11.8611H16.7935V12.6333C16.6855 12.4943 16.5311 12.4171 16.3305 12.4171C15.9137 12.4171 15.5896 12.7414 15.5896 13.1893C15.5896 13.6371 15.9137 13.9614 16.3305 13.9614C16.5466 13.9614 16.7009 13.8843 16.7935 13.7452V13.9306H17.1177V13.1893ZM15.9292 13.1893C15.9292 12.9267 16.0989 12.7105 16.3768 12.7105C16.6392 12.7105 16.8244 12.9113 16.8244 13.1893C16.8244 13.4518 16.6392 13.668 16.3768 13.668C16.0989 13.6525 15.9292 13.4518 15.9292 13.1893ZM5.09354 13.1893V12.448H4.76939V12.6333C4.66132 12.4943 4.50699 12.4171 4.30632 12.4171C3.88957 12.4171 3.56543 12.7414 3.56543 13.1893C3.56543 13.6371 3.88957 13.9614 4.30632 13.9614C4.52246 13.9614 4.67679 13.8843 4.76939 13.7452V13.9306H5.09354V13.1893ZM3.88957 13.1893C3.88957 12.9267 4.05938 12.7105 4.33718 12.7105C4.59959 12.7105 4.78486 12.9113 4.78486 13.1893C4.78486 13.4518 4.59959 13.668 4.33718 13.668C4.05938 13.6525 3.88957 13.4518 3.88957 13.1893Z" fill="black"/>
<path d="M6.56006 1.18921H11.4222V9.93049H6.56006V1.18921Z" fill="#FF5F00"/>
<path d="M6.86876 5.55983C6.86876 3.7838 7.70224 2.20848 8.98334 1.18916C8.04185 0.447859 6.85336 0 5.5568 0C2.48505 0 0 2.48644 0 5.55983C0 8.63315 2.48505 11.1197 5.55673 11.1197C6.85329 11.1197 8.04178 10.6718 8.98334 9.93043C7.70224 8.92658 6.86876 7.33586 6.86876 5.55983Z" fill="#EB001B"/>
<path d="M17.9821 5.55983C17.9821 8.63315 15.4971 11.1197 12.4254 11.1197C11.1288 11.1197 9.94033 10.6718 8.99878 9.93043C10.2953 8.91118 11.1134 7.33586 11.1134 5.55983C11.1134 3.7838 10.2799 2.20848 8.99878 1.18916C9.94026 0.447859 11.1288 0 12.4254 0C15.4971 0 17.9821 2.50192 17.9821 5.55983Z" fill="#F79E1B"/>
</svg>
