<svg width="12" height="12" viewBox="0 0 12 12" fill="none" xmlns="http://www.w3.org/2000/svg">
<path d="M8.06999 8.712L6.26399 6.906C6.19799 6.84 6.11999 6.828 6.07799 6.828C6.03599 6.828 5.95799 6.84 5.89199 6.906L4.07999 8.718C3.87599 8.922 3.55799 9.252 2.49599 9.252L4.72199 11.472C5.05949 11.8091 5.51699 11.9984 5.99399 11.9984C6.47099 11.9984 6.92849 11.8091 7.26599 11.472L9.49799 9.246C8.95199 9.246 8.49599 9.138 8.06999 8.712ZM4.07999 3.282L5.89199 5.094C5.93999 5.142 6.01199 5.172 6.07799 5.172C6.14399 5.172 6.21599 5.142 6.26399 5.094L8.05799 3.3C8.48399 2.856 8.96999 2.754 9.51599 2.754L7.28399 0.528003C6.94649 0.190922 6.48899 0.00158691 6.01199 0.00158691C5.53499 0.00158691 5.07749 0.190922 4.73999 0.528003L2.51399 2.748C3.56999 2.748 3.89399 3.096 4.07999 3.282Z" fill="#242424"/>
<path d="M11.466 4.71L10.116 3.354H9.35999C9.03599 3.354 8.71199 3.486 8.48999 3.72L6.68999 5.52C6.52199 5.688 6.29999 5.772 6.07799 5.772C5.84938 5.76878 5.63057 5.67869 5.46599 5.52L3.65399 3.702C3.42599 3.474 3.11399 3.342 2.78399 3.342H1.90199L0.527988 4.722C0.190907 5.0595 0.00157166 5.517 0.00157166 5.994C0.00157166 6.471 0.190907 6.9285 0.527988 7.266L1.90199 8.646H2.78999C3.11399 8.646 3.42599 8.514 3.65999 8.286L5.47199 6.474C5.63999 6.306 5.86199 6.222 6.08399 6.222C6.30599 6.222 6.52799 6.306 6.69599 6.474L8.50199 8.28C8.72999 8.508 9.04199 8.64 9.37199 8.64H10.128L11.478 7.284C11.8165 6.94043 12.0052 6.47683 12.003 5.99453C12.0007 5.51222 11.8077 5.05041 11.466 4.71Z" fill="#242424"/>
</svg>
