<svg width="90" height="103" viewBox="0 0 90 103" fill="none" xmlns="http://www.w3.org/2000/svg">
<path d="M85.2301 61.0637C88.286 55.3758 90 48.9676 90 42.1764C90 18.8759 69.8468 0 45.003 0C20.1593 0 0 18.8759 0 42.1764C0 53.9753 5.16638 64.6308 13.4985 72.2738C24.3131 82.2205 37.2443 84.0498 42.917 84.3471C46.2108 84.5185 54.244 86.0963 57.0559 88.2C61.3317 91.4069 64.0766 96.3403 64.0766 101.874C64.0766 102.245 64.0644 102.617 64.04 102.994C64.1559 103.006 64.2779 103.006 64.3938 103.006C74.6655 103.006 82.9915 95.2027 82.9915 85.5647C82.9915 81.5002 81.5032 77.7616 79.0268 74.7891C78.9902 74.7548 78.9597 74.7262 78.9475 74.6919C78.4351 74.1374 77.9166 73.6172 77.3799 73.1027C77.3433 73.0512 77.2884 73.0055 77.2335 72.9541C77.2091 72.9198 77.1908 72.9026 77.1542 72.8683C76.9407 72.6739 76.7089 72.4853 76.471 72.3024C76.4832 72.2909 76.4954 72.2909 76.5076 72.2681C70.4507 66.7002 62.7225 62.7272 54.0976 61.0694L54.1403 61.058H85.2362L85.2301 61.0637ZM45.4361 60.212C35.1217 60.212 26.7469 52.3746 26.7469 42.708C26.7469 33.0414 35.1217 25.2041 45.4361 25.2041C55.7506 25.2041 64.1132 33.0414 64.1132 42.708C64.1132 52.3746 55.7506 60.212 45.4361 60.212Z" fill="white"/>
</svg>

