<svg width="70" height="80" viewBox="0 0 70 80" fill="none" xmlns="http://www.w3.org/2000/svg">
<path d="M66.2901 47.0035C68.6669 42.6252 70 37.6925 70 32.465C70 14.5296 54.3253 0 35.0024 0C15.6794 0 0 14.5296 0 32.465C0 41.5471 4.0183 49.7492 10.4988 55.6323C18.9102 63.2888 28.9678 64.6969 33.3799 64.9257C35.9417 65.0577 42.1898 66.2721 44.3768 67.8914C47.7025 70.36 49.8373 74.1574 49.8373 78.4168C49.8373 78.7029 49.8279 78.9889 49.8089 79.2793C49.899 79.2881 49.9939 79.2881 50.084 79.2881C58.0732 79.2881 64.549 73.2817 64.549 65.8629C64.549 62.7343 63.3914 59.8566 61.4653 57.5685C61.4368 57.5421 61.4131 57.5201 61.4036 57.4937C61.0051 57.0668 60.6018 56.6664 60.1843 56.2704C60.1559 56.2308 60.1132 56.1956 60.0705 56.156C60.0515 56.1296 60.0373 56.1164 60.0088 56.09C59.8428 55.9404 59.6625 55.7952 59.4775 55.6544C59.487 55.6455 59.4964 55.6455 59.5059 55.6279C54.795 51.3421 48.7841 48.2839 42.0759 47.0079L42.1091 46.9991H66.2948L66.2901 47.0035ZM35.3392 46.3478C27.3168 46.3478 20.8031 40.3151 20.8031 32.8743C20.8031 25.4334 27.3168 19.4007 35.3392 19.4007C43.3616 19.4007 49.8658 25.4334 49.8658 32.8743C49.8658 40.3151 43.3616 46.3478 35.3392 46.3478Z" fill="#383839"/>
</svg>

