<svg width="33" height="33" viewBox="0 0 33 33" fill="none" xmlns="http://www.w3.org/2000/svg">
<path fill-rule="evenodd" clip-rule="evenodd" d="M13.1838 1.97451C6.99314 1.97451 1.97451 6.99314 1.97451 13.1838C1.97451 19.3744 6.99314 24.393 13.1838 24.393C19.3744 24.393 24.393 19.3744 24.393 13.1838C24.393 6.99314 19.3744 1.97451 13.1838 1.97451ZM0.25 13.1838C0.25 6.04069 6.04069 0.25 13.1838 0.25C20.3269 0.25 26.1176 6.04069 26.1176 13.1838C26.1176 20.3269 20.3269 26.1176 13.1838 26.1176C6.04069 26.1176 0.25 20.3269 0.25 13.1838Z" fill="#383839"/>
<path fill-rule="evenodd" clip-rule="evenodd" d="M21.7915 21.8051C22.1283 21.4683 22.6741 21.4683 23.0109 21.8051L32.1375 30.9317C32.4742 31.2683 32.4742 31.8143 32.1375 32.1508C31.8009 32.4876 31.2549 32.4876 30.9181 32.1508L21.7915 23.0242C21.4549 22.6877 21.4549 22.1417 21.7915 21.8051Z" fill="#383839"/>
<path fill-rule="evenodd" clip-rule="evenodd" d="M14.0465 8.00924C14.0465 8.48536 13.6605 8.8713 13.1844 8.8713H7.14917C6.67305 8.8713 6.28711 8.48536 6.28711 8.00924C6.28711 7.53291 6.67305 7.14697 7.14917 7.14697H13.1844C13.6605 7.14697 14.0465 7.53291 14.0465 8.00924Z" fill="#383839"/>
<path fill-rule="evenodd" clip-rule="evenodd" d="M20.0815 13.1824C20.0815 13.6585 19.6956 14.0446 19.2195 14.0446H7.14917C6.67305 14.0446 6.28711 13.6585 6.28711 13.1824C6.28711 12.7063 6.67305 12.3203 7.14917 12.3203H19.2195C19.6956 12.3203 20.0815 12.7063 20.0815 13.1824Z" fill="#383839"/>
<path fill-rule="evenodd" clip-rule="evenodd" d="M16.6329 18.3598C16.6329 18.836 16.2469 19.2219 15.7708 19.2219H7.14917C6.67305 19.2219 6.28711 18.836 6.28711 18.3598C6.28711 17.8835 6.67305 17.4976 7.14917 17.4976H15.7708C16.2469 17.4976 16.6329 17.8835 16.6329 18.3598Z" fill="#383839"/>
</svg>

