<?xml version="1.0" encoding="UTF-8"?>
<svg id="Camada_2" data-name="Camada 2" xmlns="http://www.w3.org/2000/svg" viewBox="0 0 300 300">
  <defs>
    <style>
      .cls-1 {
        fill: #6722ff;
      }

      .cls-2 {
        fill: #d8ff00;
      }
    </style>
  </defs>
  <g id="Camada_1-2" data-name="Camada 1">
    <rect class="cls-1" width="300" height="300"/>
    <path class="cls-2" d="m215.95,166.73c5.01-9.95,7.82-21.16,7.82-33.04,0-40.75-33.04-73.78-73.77-73.78s-73.78,33.02-73.78,73.78c0,20.64,8.47,39.28,22.13,52.65,17.73,17.4,38.93,20.6,48.23,21.12,5.4.3,18.57,3.06,23.18,6.74,7.01,5.61,11.51,14.24,11.51,23.92,0,.65-.02,1.3-.06,1.96.19.02.39.02.58.02,16.84,0,30.49-13.65,30.49-30.51,0-7.11-2.44-13.65-6.5-18.85-.06-.06-.11-.11-.13-.17-.84-.97-1.69-1.88-2.57-2.78-.06-.09-.15-.17-.24-.26-.04-.06-.07-.09-.13-.15-.35-.34-.73-.67-1.12-.99.02-.02.04-.02.06-.06-9.93-9.74-22.6-16.69-36.74-19.59l.07-.02h50.98Zm-65.24-1.49c-16.91,0-30.64-13.71-30.64-30.62s13.73-30.62,30.64-30.62,30.62,13.71,30.62,30.62-13.71,30.62-30.62,30.62Z"/>
  </g>
</svg>