<?xml version="1.0" encoding="UTF-8"?>
<svg id="Camada_2" data-name="Camada 2" xmlns="http://www.w3.org/2000/svg" viewBox="0 0 498.33 101.28">
  <defs>
    <style>
      .cls-1 {
        fill: #6722ff;
      }
    </style>
  </defs>
  <g id="Camada_1-2" data-name="Camada 1">
    <g>
      <path class="cls-1" d="m78.54,60.04c2.82-5.59,4.4-11.89,4.4-18.57C82.94,18.56,64.37,0,41.47,0S0,18.56,0,41.47c0,11.6,4.76,22.08,12.44,29.6,9.96,9.78,21.88,11.58,27.11,11.87,3.04.17,10.44,1.72,13.03,3.79,3.94,3.15,6.47,8,6.47,13.44,0,.37-.01.73-.03,1.1.1.01.22.01.32.01,9.46,0,17.14-7.67,17.14-17.15,0-4-1.37-7.67-3.65-10.6-.03-.03-.06-.06-.07-.09-.47-.54-.95-1.06-1.44-1.56-.03-.05-.08-.09-.14-.15-.02-.03-.04-.05-.07-.08-.2-.19-.41-.38-.63-.55.01-.01.02-.01.03-.03-5.58-5.48-12.7-9.38-20.65-11.01h.04s28.65-.01,28.65-.01Zm-36.67-.84c-9.51,0-17.22-7.71-17.22-17.21s7.72-17.21,17.22-17.21,17.21,7.71,17.21,17.21-7.71,17.21-17.21,17.21Z"/>
      <path class="cls-1" d="m151.77,52.46c0,5.85-8.11,7.76-14.59,7.76-10.86,0-18.26-6.56-18.26-19.11,0-9.59,6.91-16.85,18.05-16.85s16.99,6.84,16.99,17.27c0,3.6-3.03,4.3-5.57,4.3h-16.08c1.41,3.67,4.51,5.5,9.87,5.5,3.45,0,6.42-.56,9.59-1.62v2.75Zm-20.31-13.54h8.6c.92,0,1.27-.78,1.27-1.34,0-3.03-1.41-5.5-4.58-5.5-3.38,0-5.01,2.26-5.29,6.84Z"/>
      <path class="cls-1" d="m173.61,39.21l6.77-.56v-.21c-.28-5.01-4.37-5.85-8.32-5.85-3.24,0-6.2.99-8.88,2.12v-2.96c0-5.78,8.46-7.47,14.03-7.47,8.04,0,14.67,2.47,15.51,14.1l1.2,16.92c.35,4.51-5.15,4.51-12.34,4.51l-.28-4.79c-2.96,3.31-6.77,5.22-11.28,5.22-6.84,0-10.08-5.29-10.08-10.43,0-5.78,3.6-9.73,13.68-10.58Zm1.97,12.9c3.03,0,5.01-3.45,5.15-6.91l-5.01.63c-1.97.28-2.96,1.62-2.96,3.17,0,1.76,1.06,3.1,2.82,3.1Z"/>
      <path class="cls-1" d="m213.36,60.22c-4.16,0-11.28-.78-11.28-7.33v-2.4c2.19.92,5.15,1.62,7.61,1.62,3.03,0,5.01-.63,5.01-1.97,0-3.38-14.88-.07-14.88-13.47,0-7.97,7.26-12.41,15.79-12.41s13.47,3.53,13.47,8.6c0,3.38-2.47,4.58-6.35,4.58h-3.38v-1.2c0-2.61-1.06-3.88-3.45-3.88-2.04,0-2.96,1.34-2.96,2.75,0,6.34,14.88,1.13,14.88,14.03,0,7.76-7.19,11.07-14.45,11.07Z"/>
      <path class="cls-1" d="m274.07,24.84l-12.76,34.26c-1.48,7.76-6.27,11.99-13.54,11.99-4.02,0-8.46-1.27-8.46-5.71v-3.88c1.2.42,2.89.71,4.58.71,2.82,0,4.51-.78,5.5-2.82-6.42-11.63-11.49-23.55-15.3-35.18h14.59c1.48,7.05,3.6,15.16,6.42,21.86l5.92-21.86h13.04v.63Z"/>
      <path class="cls-1" d="m310.44,33.69v10.5c0,4.31,1.87,6.76,6.26,6.76,1.87,0,3.67-.29,5.89-1.15v2.66c0,5.53-5.39,7.76-11.72,7.76-7.62,0-12.8-3.88-12.8-14.02v-12.87l-5.97-2.88c.22-2.09,1.22-4.53,2.16-6.18h3.81v-1.37c0-6.61,1.51-6.61,12.36-6.61v7.98h8.7c4.24,0,4.24,2.44,4.24,9.42h-12.94Z"/>
      <path class="cls-1" d="m347.27,60.22c-10.86,0-18.19-7.47-18.19-18.68s6.56-17.27,18.19-17.27,18.19,6.49,18.19,17.27-7.33,18.68-18.19,18.68Zm0-26.3c-4.44,0-5.64,3.03-5.64,7.61s1.83,8.81,5.64,8.81,5.64-4.23,5.64-8.81-1.2-7.61-5.64-7.61Z"/>
      <path class="cls-1" d="m383.5,59.51V18.06c0-6.49,1.48-6.49,12.13-6.49v47.94h-12.13Z"/>
      <path class="cls-1" d="m408.05,20.92c-5.42,0-7.35-2.21-7.35-6.49s1.93-6.63,7.35-6.63,7.35,2.35,7.35,6.63-2.14,6.49-7.35,6.49Zm-6.42,38.51v-28.67c0-6.56,1.5-6.56,12.27-6.56v35.23h-12.27Z"/>
      <path class="cls-1" d="m432.52,60.15l-12.59-35.33v-.65h14.39l5.76,22.24c2.81-7.92,4.89-15.61,6.26-22.24h13.74c-3.6,11.8-8.5,25.54-13.97,35.9-4.6.11-8.99.08-13.6.08Z"/>
      <path class="cls-1" d="m496.14,52.31c0,5.85-8.11,7.76-14.59,7.76-10.86,0-18.26-6.56-18.26-19.11,0-9.59,6.91-16.85,18.05-16.85s16.99,6.84,16.99,17.27c0,3.6-3.03,4.3-5.57,4.3h-16.07c1.41,3.67,4.51,5.5,9.87,5.5,3.45,0,6.42-.56,9.59-1.62v2.75Zm-20.31-13.54h8.6c.92,0,1.27-.78,1.27-1.34,0-3.03-1.41-5.5-4.58-5.5-3.38,0-5.01,2.26-5.29,6.84Z"/>
    </g>
  </g>
</svg>