<svg id="estetica" xmlns="http://www.w3.org/2000/svg" xmlns:xlink="http://www.w3.org/1999/xlink" width="34.516" height="34.543" viewBox="0 0 34.516 34.543">
  <defs>
    <clipPath id="clip-path">
      <rect id="Retângulo_116" data-name="Retângulo 116" width="34.516" height="34.543" fill="none"/>
    </clipPath>
    <clipPath id="clip-path-3">
      <rect id="Retângulo_97" data-name="Retângulo 97" width="0.546" height="0.975" fill="none"/>
    </clipPath>
    <clipPath id="clip-path-14">
      <rect id="Retângulo_108" data-name="Retângulo 108" width="3.028" height="1.853" fill="none"/>
    </clipPath>
    <clipPath id="clip-path-15">
      <rect id="Retângulo_109" data-name="Retângulo 109" width="6.211" height="1.361" fill="none"/>
    </clipPath>
    <clipPath id="clip-path-16">
      <rect id="Retângulo_110" data-name="Retângulo 110" width="6.199" height="1.408" fill="none"/>
    </clipPath>
    <clipPath id="clip-path-17">
      <rect id="Retângulo_111" data-name="Retângulo 111" width="0.687" height="1.564" fill="none"/>
    </clipPath>
  </defs>
  <g id="Grupo_312" data-name="Grupo 312" clip-path="url(#clip-path)">
    <g id="Grupo_311" data-name="Grupo 311">
      <g id="Grupo_310" data-name="Grupo 310" clip-path="url(#clip-path)">
        <path id="Caminho_171" data-name="Caminho 171" d="M91.571,88.554s4.558-9.959,11.057-7.9,7.8,4.844,8.5,5.562-1.738.175-4.449,1.173-3.722,3.306-8.309,2.153A9.012,9.012,0,0,0,90.8,90.805Z" transform="translate(-76.73 -67.918)" fill="#6aa85d"/>
        <path id="Caminho_172" data-name="Caminho 172" d="M90.8,112.666s6.577-9.364,16.341-5.487" transform="translate(-76.73 -89.779)" fill="none" stroke="#94c886" stroke-linecap="round" stroke-miterlimit="10" stroke-width="1"/>
        <path id="Caminho_173" data-name="Caminho 173" d="M131.347,27.584s-2.018-8.287,2.946-10.165,7.107-.8,7.878-.7-.978.945-2.154,2.863-.681,3.816-4.04,5.324a7.018,7.018,0,0,0-4.016,4.427Z" transform="translate(-110.654 -13.791)" fill="#94c886"/>
        <path id="Caminho_174" data-name="Caminho 174" d="M137.485,39.031s-.5-8.9,7.342-11.236" transform="translate(-116.178 -23.489)" fill="none" stroke="#6aa85d" stroke-linecap="round" stroke-miterlimit="10" stroke-width="1"/>
        <path id="Caminho_175" data-name="Caminho 175" d="M132.469,138.986s3.331-4.043,6.262-2.982,3.429,2.369,3.723,2.712-.811.05-2.1.463-1.849,1.459-3.928.848-4.911.979-4.911.979Z" transform="translate(-111.135 -114.782)" fill="#94c886"/>
        <path id="Caminho_176" data-name="Caminho 176" d="M140.275,150.78s3.4-4.2,7.773-2.245" transform="translate(-118.542 -125.083)" fill="none" stroke="#6aa85d" stroke-linecap="round" stroke-miterlimit="10" stroke-width="1"/>
        <path id="Caminho_177" data-name="Caminho 177" d="M39.92,57.2s2.319-9.525-3.386-11.684-8.169-.924-9.055-.8S28.6,45.8,29.954,48s.782,4.387,4.644,6.119a8.066,8.066,0,0,1,4.617,5.089Z" transform="translate(-23.037 -37.396)" fill="#6aa85d"/>
        <path id="Caminho_178" data-name="Caminho 178" d="M58.385,70.358s.57-10.226-8.439-12.916" transform="translate(-42.208 -48.542)" fill="none" stroke="#94c886" stroke-linecap="round" stroke-miterlimit="10" stroke-width="1"/>
        <path id="Caminho_179" data-name="Caminho 179" d="M16.935,91.095s-2.389-9.486-8.429-8.735S.866,85.349.14,85.867s1.5.435,3.717,1.752,2.733,3.507,6.948,3.238A8.049,8.049,0,0,1,17.249,93.2Z" transform="translate(0 -69.564)" fill="#94c886"/>
        <path id="Caminho_180" data-name="Caminho 180" d="M37.9,110.515s-4.259-9.29-13.462-7.468" transform="translate(-20.654 -86.881)" fill="none" stroke="#6aa85d" stroke-linecap="round" stroke-miterlimit="10" stroke-width="1"/>
        <path id="Caminho_181" data-name="Caminho 181" d="M53.062,133.578s-3.686-4.912-6.968-3.174-3.654,3.365-3.944,3.819.966-.075,2.56.2,2.424,1.415,4.777.349a5.122,5.122,0,0,1,4.269-.055Z" transform="translate(-35.584 -109.885)" fill="#6aa85d"/>
        <path id="Caminho_182" data-name="Caminho 182" d="M65.214,147.006s-4.711-4.4-9.547-1.359" transform="translate(-47.042 -122.178)" fill="none" stroke="#94c886" stroke-linecap="round" stroke-miterlimit="10" stroke-width="1"/>
        <path id="Caminho_183" data-name="Caminho 183" d="M125.739,52.339l4.976,2.35,6.657-11.678-6.609-3.121Z" transform="translate(-106.258 -33.709)" fill="#98b4de"/>
        <rect id="Retângulo_96" data-name="Retângulo 96" width="1.209" height="7.309" transform="matrix(0.427, -0.904, 0.904, 0.427, 24.505, 6.18)" fill="#7289c4"/>
        <path id="Caminho_184" data-name="Caminho 184" d="M116.68,124.374l3.771,1.781a.625.625,0,0,0,.893-.33l1.431-3.03-4.9-2.313-1.442,3.053a.563.563,0,0,0,.245.84" transform="translate(-98.318 -101.814)" fill="#00397f"/>
        <path id="Caminho_185" data-name="Caminho 185" d="M121.409,141.467l-.065.137a.625.625,0,0,1-.893.331l-3.771-1.781a.564.564,0,0,1-.245-.84l.075-.159Z" transform="translate(-98.318 -117.594)" fill="#002a4c"/>
        <path id="Caminho_186" data-name="Caminho 186" d="M130.81,142.645a.735.735,0,1,0-1.312-.619Z" transform="translate(-109.434 -119.582)" fill="#002a4c"/>
        <g id="Grupo_267" data-name="Grupo 267" transform="translate(30.753 8.26)" style="mix-blend-mode: multiply;isolation: isolate">
          <g id="Grupo_266" data-name="Grupo 266">
            <g id="Grupo_265" data-name="Grupo 265" clip-path="url(#clip-path-3)">
              <path id="Caminho_187" data-name="Caminho 187" d="M198.491,54.185l.22.1.326-.975Z" transform="translate(-198.491 -53.315)" fill="#aabbc2"/>
            </g>
          </g>
        </g>
        <g id="Grupo_270" data-name="Grupo 270" transform="translate(30.153 7.977)" style="mix-blend-mode: multiply;isolation: isolate">
          <g id="Grupo_269" data-name="Grupo 269">
            <g id="Grupo_268" data-name="Grupo 268" clip-path="url(#clip-path-3)">
              <path id="Caminho_188" data-name="Caminho 188" d="M194.617,52.356l.22.1.326-.975Z" transform="translate(-194.617 -51.486)" fill="#aabbc2"/>
            </g>
          </g>
        </g>
        <g id="Grupo_273" data-name="Grupo 273" transform="translate(29.553 7.694)" style="mix-blend-mode: multiply;isolation: isolate">
          <g id="Grupo_272" data-name="Grupo 272">
            <g id="Grupo_271" data-name="Grupo 271" clip-path="url(#clip-path-3)">
              <path id="Caminho_189" data-name="Caminho 189" d="M190.745,50.527l.22.1.326-.975Z" transform="translate(-190.745 -49.657)" fill="#aabbc2"/>
            </g>
          </g>
        </g>
        <g id="Grupo_276" data-name="Grupo 276" transform="translate(28.953 7.41)" style="mix-blend-mode: multiply;isolation: isolate">
          <g id="Grupo_275" data-name="Grupo 275">
            <g id="Grupo_274" data-name="Grupo 274" clip-path="url(#clip-path-3)">
              <path id="Caminho_190" data-name="Caminho 190" d="M186.873,48.7l.22.1.326-.974Z" transform="translate(-186.873 -47.828)" fill="#aabbc2"/>
            </g>
          </g>
        </g>
        <g id="Grupo_279" data-name="Grupo 279" transform="translate(28.353 7.127)" style="mix-blend-mode: multiply;isolation: isolate">
          <g id="Grupo_278" data-name="Grupo 278">
            <g id="Grupo_277" data-name="Grupo 277" clip-path="url(#clip-path-3)">
              <path id="Caminho_191" data-name="Caminho 191" d="M183,46.87l.22.1.326-.975Z" transform="translate(-183 -45.999)" fill="#aabbc2"/>
            </g>
          </g>
        </g>
        <g id="Grupo_282" data-name="Grupo 282" transform="translate(27.753 6.843)" style="mix-blend-mode: multiply;isolation: isolate">
          <g id="Grupo_281" data-name="Grupo 281">
            <g id="Grupo_280" data-name="Grupo 280" clip-path="url(#clip-path-3)">
              <path id="Caminho_192" data-name="Caminho 192" d="M179.127,45.041l.22.1.326-.975Z" transform="translate(-179.127 -44.17)" fill="#aabbc2"/>
            </g>
          </g>
        </g>
        <g id="Grupo_285" data-name="Grupo 285" transform="translate(27.153 6.56)" style="mix-blend-mode: multiply;isolation: isolate">
          <g id="Grupo_284" data-name="Grupo 284">
            <g id="Grupo_283" data-name="Grupo 283" clip-path="url(#clip-path-3)">
              <path id="Caminho_193" data-name="Caminho 193" d="M175.255,43.212l.22.1.326-.975Z" transform="translate(-175.255 -42.342)" fill="#aabbc2"/>
            </g>
          </g>
        </g>
        <g id="Grupo_288" data-name="Grupo 288" transform="translate(26.553 6.277)" style="mix-blend-mode: multiply;isolation: isolate">
          <g id="Grupo_287" data-name="Grupo 287">
            <g id="Grupo_286" data-name="Grupo 286" clip-path="url(#clip-path-3)">
              <path id="Caminho_194" data-name="Caminho 194" d="M171.383,41.383l.22.1.326-.975Z" transform="translate(-171.383 -40.512)" fill="#aabbc2"/>
            </g>
          </g>
        </g>
        <g id="Grupo_291" data-name="Grupo 291" transform="translate(25.953 5.993)" style="mix-blend-mode: multiply;isolation: isolate">
          <g id="Grupo_290" data-name="Grupo 290">
            <g id="Grupo_289" data-name="Grupo 289" clip-path="url(#clip-path-3)">
              <path id="Caminho_195" data-name="Caminho 195" d="M167.51,39.554l.22.1.326-.975Z" transform="translate(-167.51 -38.683)" fill="#aabbc2"/>
            </g>
          </g>
        </g>
        <g id="Grupo_294" data-name="Grupo 294" transform="translate(25.353 5.71)" style="mix-blend-mode: multiply;isolation: isolate">
          <g id="Grupo_293" data-name="Grupo 293">
            <g id="Grupo_292" data-name="Grupo 292" clip-path="url(#clip-path-3)">
              <path id="Caminho_196" data-name="Caminho 196" d="M163.637,37.725l.22.1.326-.975Z" transform="translate(-163.637 -36.854)" fill="#aabbc2"/>
            </g>
          </g>
        </g>
        <g id="Grupo_297" data-name="Grupo 297" transform="translate(24.753 5.427)" style="mix-blend-mode: multiply;isolation: isolate">
          <g id="Grupo_296" data-name="Grupo 296">
            <g id="Grupo_295" data-name="Grupo 295" clip-path="url(#clip-path-3)">
              <path id="Caminho_197" data-name="Caminho 197" d="M159.765,35.9l.22.1.326-.975Z" transform="translate(-159.765 -35.026)" fill="#aabbc2"/>
            </g>
          </g>
        </g>
        <path id="Caminho_198" data-name="Caminho 198" d="M130.733,108.819l8.588-8.339,1.175,1.283-9.12,7.768c-.64.545-1.247-.126-.643-.712" transform="translate(-110.268 -84.912)" fill="#7289c4"/>
        <path id="Caminho_199" data-name="Caminho 199" d="M187.52,86.422l1.347-2.3a.554.554,0,0,1,.708-.224l2.612,1.194a.554.554,0,0,1,0,1.007L188.7,87.705Z" transform="translate(-158.467 -70.854)" fill="#98b4de"/>
        <path id="Caminho_200" data-name="Caminho 200" d="M177.551,101.979l1.08,1.179,1.639-1.4L179.1,100.48Z" transform="translate(-150.042 -84.912)" fill="#00397f"/>
        <path id="Caminho_201" data-name="Caminho 201" d="M47.266,131.435c.818-1.316,3.676-2.027,5.776-2.38a2.872,2.872,0,0,0,2.4-2.785l.02-1.3,1.19.42a.907.907,0,0,0,.6,0l1.19-.42.021,1.4a2.753,2.753,0,0,0,2.307,2.674c2.108.348,5.041,1.06,5.871,2.4a3.638,3.638,0,0,1,.723,2.511.9.9,0,0,1-.89.727H47.433a.9.9,0,0,1-.89-.727,3.639,3.639,0,0,1,.723-2.511" transform="translate(-39.306 -105.605)" fill="#fa985d"/>
        <g id="Grupo_300" data-name="Grupo 300" transform="translate(16.151 19.187)" opacity="0.53">
          <g id="Grupo_299" data-name="Grupo 299">
            <g id="Grupo_298" data-name="Grupo 298" clip-path="url(#clip-path-14)">
              <path id="Caminho_202" data-name="Caminho 202" d="M104.247,124.485a4.036,4.036,0,0,0,3.028,1.18s-.03-.538-.035-1.825l-2.986.176Z" transform="translate(-104.247 -123.84)" fill="#7c4c23"/>
            </g>
          </g>
        </g>
        <path id="Caminho_203" data-name="Caminho 203" d="M75.154,39.878c.449-1.066.67-.207.894-.006-.008-.314-.009-.639,0-.975a1,1,0,0,1,.993-.971c1.167-.02,4.552-1.716,6.347-4.064.273,1.051,0,1.885,2.252,4.006.366.344.825.57.832,1.072,0,.289,0,.625,0,.992.164-.172.416-1.728.916-.542.554,1.316-.318,3.6-1.123,3.2a8.232,8.232,0,0,1-1.39,3.9,6.22,6.22,0,0,1-3.119,2.348,1.151,1.151,0,0,1-.685-.042c-.925-.35-4.9-2.338-4.714-6.224-.8.452-1.763-1.364-1.2-2.7" transform="translate(-63.367 -28.616)" fill="#fa985d"/>
        <g id="Grupo_303" data-name="Grupo 303" transform="translate(11.111 26.146)" opacity="0.53">
          <g id="Grupo_302" data-name="Grupo 302">
            <g id="Grupo_301" data-name="Grupo 301" clip-path="url(#clip-path-15)">
              <path id="Caminho_204" data-name="Caminho 204" d="M78.26,170.461s.1-.788-.261-1c-1.051-.617-5.783.345-5.783.345" transform="translate(-72.138 -169.177)" fill="none" stroke="#7c4c23" stroke-linecap="round" stroke-miterlimit="10" stroke-width="1"/>
            </g>
          </g>
        </g>
        <g id="Grupo_306" data-name="Grupo 306" transform="translate(17.573 26.122)" opacity="0.53">
          <g id="Grupo_305" data-name="Grupo 305">
            <g id="Grupo_304" data-name="Grupo 304" clip-path="url(#clip-path-16)">
              <path id="Caminho_205" data-name="Caminho 205" d="M113.925,170.356a1.766,1.766,0,0,1,.261-1c.649-.727,5.783.345,5.783.345" transform="translate(-113.847 -169.026)" fill="none" stroke="#7c4c23" stroke-linecap="round" stroke-miterlimit="10" stroke-width="1"/>
            </g>
          </g>
        </g>
        <path id="Caminho_206" data-name="Caminho 206" d="M92.2,84.106a3.677,3.677,0,0,0,2.161.522.073.073,0,0,1,.022.141,2.558,2.558,0,0,1-1.649.055,1.055,1.055,0,0,1-.645-.636.073.073,0,0,1,.112-.083" transform="translate(-77.815 -71.062)" fill="#002a4c"/>
        <path id="Caminho_207" data-name="Caminho 207" d="M92.939,78.661c-.53-.087-2.291-.331-2.868.141a1.085,1.085,0,0,1,.884-.709,5.117,5.117,0,0,1,2.177.177.175.175,0,0,1,.105.214.263.263,0,0,1-.3.177" transform="translate(-76.116 -65.969)" fill="#002a4c"/>
        <path id="Caminho_208" data-name="Caminho 208" d="M124.312,84.106a3.677,3.677,0,0,1-2.161.522.073.073,0,0,0-.022.141,2.558,2.558,0,0,0,1.649.055,1.055,1.055,0,0,0,.645-.636.073.073,0,0,0-.112-.083" transform="translate(-103.165 -71.062)" fill="#002a4c"/>
        <path id="Caminho_209" data-name="Caminho 209" d="M119.88,78.661c.53-.087,2.291-.331,2.868.141a1.085,1.085,0,0,0-.884-.709,5.117,5.117,0,0,0-2.177.177.175.175,0,0,0-.105.214.263.263,0,0,0,.3.177" transform="translate(-101.048 -65.969)" fill="#002a4c"/>
        <path id="Caminho_210" data-name="Caminho 210" d="M106.094,112.542s.446-.21.779-.366a.633.633,0,0,1,.463-.027l.186.061a.125.125,0,0,0,.077,0l.186-.061a.633.633,0,0,1,.463.027c.333.155.735.372.735.372a4.209,4.209,0,0,1-.555.521,1.552,1.552,0,0,1-1.831,0,1.944,1.944,0,0,1-.5-.527" transform="translate(-89.656 -94.747)" fill="#00397f"/>
        <path id="Caminho_211" data-name="Caminho 211" d="M110.565,115.236a.5.5,0,0,0,.5,0,1.663,1.663,0,0,1,.61-.018,1.415,1.415,0,0,0-.679.152.472.472,0,0,1-.358,0,1.086,1.086,0,0,0-.644-.136,1.369,1.369,0,0,1,.572,0" transform="translate(-92.951 -97.349)" fill="#fff"/>
        <path id="Caminho_212" data-name="Caminho 212" d="M87.873,42.629a7.972,7.972,0,0,1-5.483,3.41l.756-2.734L89.279,41s5.258,2.967,3.6,5.544a5.578,5.578,0,0,1-4.834-3.883.1.1,0,0,0-.173-.031" transform="translate(-69.625 -34.647)" fill="#002a4c"/>
        <path id="Caminho_213" data-name="Caminho 213" d="M79.423,8.8a3.075,3.075,0,0,0-3.839-.988,6.38,6.38,0,0,0-3.812,4.18A6.446,6.446,0,0,0,72.9,17.669s-1.846-1.032-3.07-4.4.153-5.307-.255-6.225l-.058-.13a1.18,1.18,0,0,1,.258-1.33C70.315,5.068,71,4.3,70.905,3.83c-.153-.765-.867-1.429,1.173-2.5s6.633-2.5,8.317.306.306,1.48,1.684,4.031S83.1,15.576,80.432,16.44A7.5,7.5,0,0,0,79.423,8.8" transform="translate(-58.574 0)" fill="#e2effa"/>
        <path id="Caminho_214" data-name="Caminho 214" d="M125.009,44.451a3.189,3.189,0,0,0,.571-.81,4.313,4.313,0,0,1-.571.81" transform="translate(-105.641 -36.88)" fill="#bbd7e7"/>
        <path id="Caminho_215" data-name="Caminho 215" d="M124.567,48.871c-.027.029-.052.058-.081.087,0,0,.031-.031.081-.087" transform="translate(-105.199 -41.299)" fill="#bbd7e7"/>
        <path id="Caminho_216" data-name="Caminho 216" d="M83.209,19.357c-2.818-.492-4.31-.585-5.192-.682a7.338,7.338,0,0,0,.243.937s3.319.2,5.18.255c1.569.043,3.146,1.141,2.428,2.676.541-1.011.75-2.591-2.659-3.186" transform="translate(-65.929 -15.782)" fill="#bbd7e7"/>
        <path id="Caminho_217" data-name="Caminho 217" d="M70.133,37.866a1.184,1.184,0,0,0-.042,1.048l.058.13a.81.81,0,0,1,.037.1,14.727,14.727,0,0,0,5.627-.971,16.741,16.741,0,0,1-5.68-.311" transform="translate(-59.145 -31.999)" fill="#bbd7e7"/>
        <path id="Caminho_218" data-name="Caminho 218" d="M145.527,51.432c-.006-.431-.03-.855-.071-1.263a3.556,3.556,0,0,0-1.98-.736,9.57,9.57,0,0,1,2.051,2" transform="translate(-121.247 -41.774)" fill="#bbd7e7"/>
        <path id="Caminho_219" data-name="Caminho 219" d="M134.669,20.056a2.854,2.854,0,0,1-2.062,1.539s.755.461,2.341-.327a8.235,8.235,0,0,0-.279-1.212" transform="translate(-112.062 -16.949)" fill="#bbd7e7"/>
        <path id="Caminho_220" data-name="Caminho 220" d="M91.444,56.82a.363.363,0,0,0-.615-.093,7.76,7.76,0,0,1-4.182,2.6c-.191.043-.341.6-.375.781a9.224,9.224,0,0,0,.371,3.712,5.7,5.7,0,0,0,1.343,2.2,5.288,5.288,0,0,0,2.7,1.7c1.314.183,1.485-.978.054-1.057A1.647,1.647,0,0,1,89.084,65.5a4.383,4.383,0,0,1,1.382-.552c.4.017.564-.287.761-.789A5.755,5.755,0,0,0,91.29,61c-.447-1.319.016-1.04.554-1.638.4-.441-.072-1.752-.4-2.539M89.2,61.965c-1.169.161-2.368-.014-2.706-1.217s2.244-1.278,3.212-1.037a.778.778,0,0,1,.625.765c-.08.575-.176.98-.176.981a1.7,1.7,0,0,1-.956.507" transform="translate(-72.859 -47.827)" fill="#fff"/>
        <g id="Grupo_309" data-name="Grupo 309" transform="translate(17.396 14.675)" opacity="0.53">
          <g id="Grupo_308" data-name="Grupo 308">
            <g id="Grupo_307" data-name="Grupo 307" clip-path="url(#clip-path-17)">
              <path id="Caminho_221" data-name="Caminho 221" d="M113.171,95.22a1.593,1.593,0,0,1-.29.918c-.274.249.066.542.432.483" transform="translate(-112.704 -95.143)" fill="none" stroke="#7c4c23" stroke-linecap="round" stroke-miterlimit="10" stroke-width="1"/>
            </g>
          </g>
        </g>
        <path id="Caminho_222" data-name="Caminho 222" d="M55.8,118.771l4.185-3.36.47.622-4.4,3.083c-.309.216-.551-.109-.257-.345" transform="translate(-47.039 -97.53)" fill="#00397f"/>
        <path id="Caminho_223" data-name="Caminho 223" d="M83.533,105.408l1.319-1.834,1.29,1.706L84,106.03Z" transform="translate(-70.591 -87.527)" fill="#fff"/>
        <path id="Caminho_224" data-name="Caminho 224" d="M78.675,116.016l.432.572.791-.554-.47-.622Z" transform="translate(-66.486 -97.53)" fill="#98b4de"/>
        <path id="Caminho_225" data-name="Caminho 225" d="M89.262,103.834s.25.321,0,.563-.475.6-.057.582.742.153.78.309-.143.228,0,.257a2.837,2.837,0,0,0,.754-.264l-1.29-1.706Z" transform="translate(-75.188 -87.527)" fill="#e2effa"/>
        <path id="Caminho_226" data-name="Caminho 226" d="M171.4,200.491c-.574,0-1.039.092-1.039.206v2.444a.756.756,0,0,0,.756.756h.614a.707.707,0,0,0,.707-.707V200.7c0-.114-.465-.206-1.039-.206" transform="translate(-143.966 -169.428)" fill="#7289c4"/>
        <path id="Caminho_227" data-name="Caminho 227" d="M173.209,187.789c-.39,0-.707.063-.707.14v2.012a.208.208,0,0,0,.162.2,2.471,2.471,0,0,0,1.09,0,.208.208,0,0,0,.162-.2v-2.012c0-.077-.317-.14-.707-.14" transform="translate(-145.776 -158.694)" fill="#98b4de"/>
        <path id="Caminho_228" data-name="Caminho 228" d="M173.7,171.049l-.014.022a2.314,2.314,0,0,0-.332,1.2v1.45a1.687,1.687,0,0,0,1.1,0v-1.691a1.923,1.923,0,0,0-.25-.966l-.01-.017a.287.287,0,0,0-.49,0" transform="translate(-146.494 -144.433)" fill="#00397f"/>
        <path id="Caminho_229" data-name="Caminho 229" d="M189.921,168.537h3.361a.711.711,0,0,1,.711.711v5.918a.711.711,0,0,1-.711.711h-3.361a.711.711,0,0,1-.711-.711v-5.918a.711.711,0,0,1,.711-.711" transform="translate(-159.895 -142.425)" fill="#98b4de"/>
        <path id="Caminho_230" data-name="Caminho 230" d="M195.966,152.533a.249.249,0,0,1-.249-.249v-1.6a.249.249,0,0,0-.249-.249h-2.433a.249.249,0,0,0-.249.249v.123a.249.249,0,0,0,.249.249h.352a.249.249,0,0,1,.249.249v.973a.249.249,0,0,1-.249.249H193.1a.249.249,0,0,0-.249.249v.461h3.61v-.461a.249.249,0,0,0-.249-.249Z" transform="translate(-162.916 -127.131)" fill="#00397f"/>
        <path id="Caminho_231" data-name="Caminho 231" d="M199.1,181.779h-1.334a.472.472,0,0,1-.472-.472v-3.745a.472.472,0,0,1,.472-.472H199.1a.472.472,0,0,1,.472.472v3.745a.472.472,0,0,1-.472.472" transform="translate(-166.722 -149.652)" fill="#7289c4"/>
        <path id="Caminho_232" data-name="Caminho 232" d="M60.149,176.542a2.979,2.979,0,0,0,2.808,1.418c1.551,0,2.709-.641,2.808-1.418.138-1.084-1.112-1.547-2.315-1.4-1.266.159-.854-1.393-.493-1.671-2.344.482-3.115,2.465-2.808,3.067" transform="translate(-50.776 -146.598)" fill="#e2effa"/>
        <path id="Caminho_233" data-name="Caminho 233" d="M73.2,175.717c.774.118,2.353.778-.25,2.242,1.551,0,2.709-.641,2.808-1.418.138-1.084-1.112-1.547-2.315-1.4-1.266.159-.854-1.393-.493-1.671-1.881.463-.843,2.076.25,2.242" transform="translate(-60.771 -146.598)" fill="#98b4de"/>
        <rect id="Retângulo_112" data-name="Retângulo 112" width="5.875" height="0.68" transform="translate(9.252 29.898)" fill="#00397f"/>
        <path id="Caminho_234" data-name="Caminho 234" d="M58.687,192.972h5.906a.17.17,0,1,1,0,.34H58.687a.17.17,0,1,1,0-.34" transform="translate(-49.451 -163.074)" fill="#7289c4"/>
        <path id="Caminho_235" data-name="Caminho 235" d="M60.833,201.324h1.858a2.072,2.072,0,0,0,2.072-2.072v-1.894H58.517v1.65a2.316,2.316,0,0,0,2.316,2.316" transform="translate(-49.451 -166.78)" fill="#98b4de"/>
        <path id="Caminho_236" data-name="Caminho 236" d="M34.759,184.232H33.545a1.2,1.2,0,0,1-1.2-1.2v-3.272a1.2,1.2,0,0,1,1.2-1.2h1.214a1.2,1.2,0,0,1,1.2,1.2v3.272a1.2,1.2,0,0,1-1.2,1.2" transform="translate(-27.334 -150.897)" fill="#7289c4"/>
        <rect id="Retângulo_113" data-name="Retângulo 113" width="1.728" height="0.332" transform="translate(5.954 27.334)" fill="#98b4de"/>
        <path id="Caminho_237" data-name="Caminho 237" d="M37.549,159.294h-.364v-1.1a.624.624,0,1,0-1.248,0v1.1h-.364a.376.376,0,0,0-.376.376v.44a.377.377,0,0,0,.376.377h1.976a.377.377,0,0,0,.376-.377v-.44a.377.377,0,0,0-.376-.376" transform="translate(-29.743 -133.154)" fill="#00397f"/>
        <rect id="Retângulo_114" data-name="Retângulo 114" width="3.613" height="1.59" transform="translate(5.011 29.812)" fill="#00397f"/>
      </g>
    </g>
  </g>
</svg>
