<svg id="nutricao" xmlns="http://www.w3.org/2000/svg" xmlns:xlink="http://www.w3.org/1999/xlink" width="37.853" height="34.543" viewBox="0 0 37.853 34.543">
  <defs>
    <clipPath id="clip-path">
      <rect id="Retângulo_36" data-name="Retângulo 36" width="37.853" height="34.543" fill="none"/>
    </clipPath>
  </defs>
  <g id="Grupo_75" data-name="Grupo 75" clip-path="url(#clip-path)">
    <path id="Caminho_61" data-name="Caminho 61" d="M364.914,103.515a50.838,50.838,0,0,1,5.191-8.362,8.514,8.514,0,0,1,3.039-2.779,1.432,1.432,0,0,1,.935-.155c.6.156.828.886.813,1.5a7.083,7.083,0,0,1-1.651,3.833,34.694,34.694,0,0,1-6.71,6.948c-.484.378-.77.731-1.316.449a1,1,0,0,1-.3-1.434" transform="translate(-339.483 -85.804)" fill="#f2cb40"/>
    <path id="Caminho_62" data-name="Caminho 62" d="M333.652,134.973a.035.035,0,0,1-.024-.06,68.363,68.363,0,0,0,10.542-12.637.035.035,0,0,1,.058.037,68.436,68.436,0,0,1-10.553,12.65.035.035,0,0,1-.024.01" transform="translate(-310.51 -113.792)" fill="#11211c"/>
    <path id="Caminho_63" data-name="Caminho 63" d="M401.09,167.372c.82-.116,1.87.054,2.286-.663.259-.447.123-1.078.478-1.453.437-.461,1.248-.177,1.807-.478.593-.32.683-1.155,1.183-1.607a1.413,1.413,0,0,1,2.108.518,1.833,1.833,0,0,1-.727,2.2c-.319.208-.723.36-.865.714-.272.677.643,1.5.219,2.093-.348.487-1.13.171-1.7.358a1.459,1.459,0,0,0-.85,1.133c-.105.483-.087.988-.2,1.468-.6,2.452-3.613,2.461-5.087.823s-1.143-4.752,1.35-5.106" transform="translate(-371.234 -151.601)" fill="#90b131"/>
    <path id="Caminho_64" data-name="Caminho 64" d="M297.148,193.222a.035.035,0,0,1-.013-.067,37.609,37.609,0,0,0,16.17-12.247.035.035,0,0,1,.055.042,37.678,37.678,0,0,1-16.2,12.27l-.013,0" transform="translate(-276.535 -168.365)" fill="#11211c"/>
    <path id="Caminho_65" data-name="Caminho 65" d="M42.484,201.9a42.174,42.174,0,0,1-7.376-3.5,7.065,7.065,0,0,1-2.574-2.246,1.189,1.189,0,0,1-.215-.757c.073-.505.654-.765,1.162-.81a5.875,5.875,0,0,1,3.313,1,28.784,28.784,0,0,1,6.352,4.885c.357.364.674.566.492,1.043s-.674.555-1.154.382" transform="translate(-30.074 -181.097)" fill="#f2cb40"/>
    <path id="Caminho_66" data-name="Caminho 66" d="M69.432,221.545a.034.034,0,0,1-.022-.008,56.716,56.716,0,0,0-11.4-7.514.035.035,0,1,1,.03-.062,56.782,56.782,0,0,1,11.411,7.523.035.035,0,0,1-.022.061" transform="translate(-53.977 -199.138)" fill="#11211c"/>
    <path id="Caminho_67" data-name="Caminho 67" d="M34.035,116.771c-.2-.772-.15-1.795-.881-2.115-.455-.2-1.045,0-1.442-.3-.488-.369-.3-1.175-.653-1.677-.37-.533-1.179-.529-1.665-.958a1.36,1.36,0,0,1,.268-2.073,1.765,1.765,0,0,1,2.183.458c.234.283.423.653.776.75.677.187,1.365-.777,1.979-.436.5.281.286,1.062.526,1.586a1.405,1.405,0,0,0,1.176.691c.474.049.954-.023,1.426.037,2.41.308,2.744,3.191,1.336,4.777s-4.422,1.607-5.03-.74" transform="translate(-27.016 -101.86)" fill="#90b131"/>
    <path id="Caminho_68" data-name="Caminho 68" d="M59.24,138.111a.035.035,0,0,1-.031-.019,36.207,36.207,0,0,0-13.462-14.147.035.035,0,0,1,.035-.06A36.274,36.274,0,0,1,59.271,138.06a.035.035,0,0,1-.031.051" transform="translate(-42.564 -115.301)" fill="#11211c"/>
    <path id="Caminho_69" data-name="Caminho 69" d="M37.134,396.06H.035a.035.035,0,0,1,0-.069h37.1a.035.035,0,0,1,0,.069" transform="translate(0 -368.564)" fill="#11211c"/>
    <rect id="Retângulo_34" data-name="Retângulo 34" width="1.066" height="4.869" transform="translate(18.051 13.246)" fill="#f2cb40"/>
    <path id="Caminho_70" data-name="Caminho 70" d="M170.488,254.841a9.642,9.642,0,0,0-3.857-6.083,6.92,6.92,0,0,0-7.328,0,9.641,9.641,0,0,0-3.857,6.083c-.555,2.429-.237,5.038-.149,7.534,2.388.244,5.02.379,7.67.406,2.649-.027,5.281-.162,7.67-.406.088-2.5.405-5.1-.149-7.534" transform="translate(-144.383 -230.552)" fill="#436b5f"/>
    <path id="Caminho_71" data-name="Caminho 71" d="M166.248,180.608l-15.983-.17a2.151,2.151,0,0,1,.007-1.683c5.365.032,10.667.069,16.032.1a2.066,2.066,0,0,1-.056,1.751" transform="translate(-139.7 -166.374)" fill="#436b5f"/>
    <path id="Caminho_72" data-name="Caminho 72" d="M206.37,288.514a5.014,5.014,0,1,1-5.014-5.014,5.014,5.014,0,0,1,5.014,5.014" transform="translate(-182.743 -263.864)" fill="#90b131"/>
    <path id="Caminho_73" data-name="Caminho 73" d="M211.593,294.155A4.594,4.594,0,1,1,207,289.561a4.594,4.594,0,0,1,4.594,4.594" transform="translate(-188.385 -269.505)" fill="#ffcba1"/>
    <path id="Caminho_74" data-name="Caminho 74" d="M267.219,297.6a.035.035,0,0,1-.035-.035v-1.422a.035.035,0,1,1,.069,0v1.422a.035.035,0,0,1-.035.035" transform="translate(-248.678 -275.603)" fill="#11211c"/>
    <path id="Caminho_75" data-name="Caminho 75" d="M210.411,356.514h-1.422a.035.035,0,1,1,0-.069h1.422a.035.035,0,1,1,0,.069" transform="translate(-194.481 -331.757)" fill="#11211c"/>
    <path id="Caminho_76" data-name="Caminho 76" d="M269.323,395.636a.035.035,0,0,1-.035-.035V394.18a.035.035,0,0,1,.069,0V395.6a.035.035,0,0,1-.035.035" transform="translate(-250.637 -366.846)" fill="#11211c"/>
    <path id="Caminho_77" data-name="Caminho 77" d="M308.445,354.41h-1.422a.035.035,0,0,1,0-.069h1.422a.035.035,0,0,1,0,.069" transform="translate(-285.725 -329.799)" fill="#11211c"/>
    <path id="Caminho_78" data-name="Caminho 78" d="M265.424,352.316a.266.266,0,1,1-.266-.266.266.266,0,0,1,.266.266" transform="translate(-246.545 -327.666)" fill="#436b5f"/>
    <rect id="Retângulo_35" data-name="Retângulo 35" width="2.872" height="0.203" transform="translate(18.523 24.604) rotate(-62.866)" fill="#436b5f"/>
    <path id="Caminho_79" data-name="Caminho 79" d="M234.958,324.477a.034.034,0,0,1-.025-.01l-.548-.548a.035.035,0,0,1,.049-.049l.548.548a.035.035,0,0,1-.025.059" transform="translate(-218.142 -301.429)" fill="#11211c"/>
    <path id="Caminho_80" data-name="Caminho 80" d="M236.736,381.957a.035.035,0,0,1-.025-.059l.548-.548a.035.035,0,0,1,.049.049l-.548.548a.035.035,0,0,1-.025.01" transform="translate(-220.307 -354.927)" fill="#11211c"/>
    <path id="Caminho_81" data-name="Caminho 81" d="M294.765,379.631a.035.035,0,0,1-.025-.01l-.548-.548a.035.035,0,0,1,.049-.049l.548.548a.035.035,0,0,1-.025.059" transform="translate(-273.807 -352.762)" fill="#11211c"/>
    <path id="Caminho_82" data-name="Caminho 82" d="M291.89,322.15a.035.035,0,0,1-.025-.059l.548-.548a.035.035,0,0,1,.049.049l-.548.548a.035.035,0,0,1-.025.01" transform="translate(-271.641 -299.263)" fill="#11211c"/>
    <path id="Caminho_83" data-name="Caminho 83" d="M268.678,351.44c-.568,0-1.115-.006-1.63-.011a.035.035,0,0,1-.034-.035.032.032,0,0,1,.035-.034,44.169,44.169,0,0,0,6.963-.31,22.019,22.019,0,0,0-.551-6.974.035.035,0,0,1,.067-.017,22.083,22.083,0,0,1,.55,7.024.035.035,0,0,1-.029.031,36.238,36.238,0,0,1-5.371.326" transform="translate(-248.52 -320.203)" fill="#11211c"/>
    <path id="Caminho_84" data-name="Caminho 84" d="M180.468,275.822l-.069-.008a6.2,6.2,0,0,1,4.136-5.008l.021.066a6.126,6.126,0,0,0-4.088,4.95" transform="translate(-167.904 -252.049)" fill="#fff"/>
    <path id="Caminho_85" data-name="Caminho 85" d="M184.085.551a3.114,3.114,0,0,0-3.514-.015,5.044,5.044,0,0,0-1.946,2.7,5.044,5.044,0,0,0-1.946-2.7,3.113,3.113,0,0,0-3.514.015,3.313,3.313,0,0,0-1.006,3.217,7.734,7.734,0,0,0,1.6,3.127,24.66,24.66,0,0,0,4.863,4.812A24.655,24.655,0,0,0,183.488,6.9a7.734,7.734,0,0,0,1.6-3.127A3.313,3.313,0,0,0,184.085.551" transform="translate(-160.169 0)" fill="#ff863b"/>
    <path id="Caminho_86" data-name="Caminho 86" d="M174.019,53.508h0a.035.035,0,0,1-.033-.027l-1.211-5.521-.784,2.768a.035.035,0,0,1-.033.025H168.4a.035.035,0,1,1,0-.069h3.534l.814-2.876a.037.037,0,0,1,.034-.025.035.035,0,0,1,.033.027l1.208,5.507,1.046-4.425a.034.034,0,0,1,.032-.027.033.033,0,0,1,.035.023l.967,2.83.978-4.212a.035.035,0,0,1,.035-.027.035.035,0,0,1,.033.03l.46,3.088h4.569a.035.035,0,0,1,0,.069h-4.6a.034.034,0,0,1-.034-.03L177.1,47.7l-.965,4.153a.035.035,0,0,1-.032.027.033.033,0,0,1-.035-.023l-.967-2.831-1.054,4.456a.035.035,0,0,1-.034.027" transform="translate(-156.702 -44.191)" fill="#11211c"/>
    <path id="Caminho_87" data-name="Caminho 87" d="M46.905,295.625q0,.12-.018.239c-.079.673-.392,1.3-.515,1.965-.262,1.426.665,2.374.836,3.706A5.273,5.273,0,0,1,45.63,306.2a4.905,4.905,0,0,1-4.672.851,5.017,5.017,0,0,1-3.226-3.537,2.993,2.993,0,0,1,.48-2.6,20.571,20.571,0,0,1,1.831-1.615,5.876,5.876,0,0,0,1.314-2.163c.47-1.218.731-2.763,1.826-3.594a2.365,2.365,0,0,1,2.736-.092,2.525,2.525,0,0,1,.987,2.173" transform="translate(-35.027 -272.761)" fill="#6e9406"/>
    <path id="Caminho_88" data-name="Caminho 88" d="M53.594,314.624a4.435,4.435,0,0,1-4.288,1.94,3.967,3.967,0,0,1-3.2-3.309,2.946,2.946,0,0,1,.481-2.134c.526-.706,1.4-1.047,2-1.688A5.724,5.724,0,0,0,49.724,307a5.971,5.971,0,0,1,1.111-2.448,1.909,1.909,0,0,1,2.386-.506,2.08,2.08,0,0,1,.716,1.815c-.028.685-.235,1.353-.317,2.036-.141,1.183.516,2.1.7,3.229a4.948,4.948,0,0,1-.725,3.5" transform="translate(-42.883 -282.761)" fill="#90b131"/>
    <path id="Caminho_89" data-name="Caminho 89" d="M87.572,380.251a2.724,2.724,0,0,0-.721,1.87,1.8,1.8,0,0,0,1.1,1.732,1.61,1.61,0,0,0,1.473-.354,2.851,2.851,0,0,0,.823-1.325,2.93,2.93,0,0,0,.1-1.676c-.423-1.518-1.893-1.193-2.772-.248" transform="translate(-80.835 -353.17)" fill="#11211c"/>
    <path id="Caminho_90" data-name="Caminho 90" d="M99.247,388.049h0a.035.035,0,0,1-.03-.039,1.393,1.393,0,0,1,1.647-1.193.035.035,0,0,1,.027.041.035.035,0,0,1-.041.027,1.323,1.323,0,0,0-1.565,1.134.035.035,0,0,1-.034.03" transform="translate(-92.34 -360.003)" fill="#fff"/>
    <path id="Caminho_91" data-name="Caminho 91" d="M364,367.944a2.915,2.915,0,0,0-2.164-1.514,2.45,2.45,0,0,0-2.248,1.108,2.419,2.419,0,0,0-2.082-1.374,2.954,2.954,0,0,0-2.348,1.236,4.605,4.605,0,0,0-.866,2.758,4.806,4.806,0,0,0,3.215,4.6,1.633,1.633,0,0,0,1.055.007.989.989,0,0,0,.589-.71.976.976,0,0,0,.489.776,1.63,1.63,0,0,0,1.047.122,4.873,4.873,0,0,0,3.8-4.171,4.572,4.572,0,0,0-.491-2.842" transform="translate(-329.751 -340.803)" fill="#ff863b"/>
    <path id="Caminho_92" data-name="Caminho 92" d="M429.133,335.065h0a.035.035,0,0,1-.031-.038,8.094,8.094,0,0,1,1.754-4.337.035.035,0,0,1,.054.044,8.025,8.025,0,0,0-1.739,4.3.035.035,0,0,1-.034.032" transform="translate(-399.378 -307.774)" fill="#11211c"/>
    <path id="Caminho_93" data-name="Caminho 93" d="M361.659,374.513l-.067-.019a3.292,3.292,0,0,1,2.746-2.427l.006.069a3.265,3.265,0,0,0-2.685,2.377" transform="translate(-336.547 -346.297)" fill="#fff"/>
    <path id="Caminho_94" data-name="Caminho 94" d="M461.171,438.405a.035.035,0,0,1-.012-.067,3.575,3.575,0,0,0,2.139-2.971.035.035,0,0,1,.069.007,3.647,3.647,0,0,1-2.183,3.03l-.012,0" transform="translate(-429.197 -405.184)" fill="#11211c"/>
    <path id="Caminho_95" data-name="Caminho 95" d="M403.008,329.085a1.986,1.986,0,0,0-1.061-1.434,2.917,2.917,0,0,0-1.8-.253,2.5,2.5,0,0,0,.98,1.722,1.557,1.557,0,0,0,1.884-.036" transform="translate(-372.429 -304.683)" fill="#90b131"/>
    <path id="Caminho_96" data-name="Caminho 96" d="M408.192,332.6h-.01a5.711,5.711,0,0,1-2.453-1.491.035.035,0,0,1,.05-.048,5.643,5.643,0,0,0,2.423,1.473.035.035,0,0,1-.01.068" transform="translate(-377.618 -308.12)" fill="#11211c"/>
    <path id="Caminho_97" data-name="Caminho 97" d="M420.961,389.009a.7.7,0,0,1-.553-.266.035.035,0,1,1,.055-.042.621.621,0,0,0,1.11-.329.035.035,0,0,1,.037-.032.034.034,0,0,1,.032.037.7.7,0,0,1-.491.605.665.665,0,0,1-.189.027" transform="translate(-391.283 -361.442)" fill="#11211c"/>
  </g>
</svg>
