<svg id="restaurantes" xmlns="http://www.w3.org/2000/svg" xmlns:xlink="http://www.w3.org/1999/xlink" width="39.959" height="34.543" viewBox="0 0 39.959 34.543">
  <defs>
    <clipPath id="clip-path">
      <rect id="Retângulo_121" data-name="Retângulo 121" width="39.96" height="34.543" fill="none"/>
    </clipPath>
  </defs>
  <g id="Grupo_314" data-name="Grupo 314" clip-path="url(#clip-path)">
    <path id="Caminho_238" data-name="Caminho 238" d="M55.583,227.451c.03.373.56.34,1.157.267s.435.111,1.271.117,1.122-.273,1.162-.393-.368-.192-.8-.294l-.163-.039a2.193,2.193,0,0,1-1.229-.8,10.177,10.177,0,0,1-.694-2.58l-1.306.244a17.269,17.269,0,0,1,.838,2.408c.035.267-.155.445-.2.679a1.451,1.451,0,0,0-.037.388" transform="translate(-47.499 -193.291)" fill="#aa5f34"/>
    <path id="Caminho_239" data-name="Caminho 239" d="M60.544,248.9c.237-.058.439.079,1.275.084s1.122-.273,1.162-.393-.368-.192-.8-.294l-.005.008a2.344,2.344,0,0,1-1.225.229c-.561-.052-1.136-.282-1.523-.321a1.456,1.456,0,0,0-.037.388c.03.373.445.473,1.153.3" transform="translate(-51.308 -214.438)" fill="#154c95"/>
    <path id="Caminho_240" data-name="Caminho 240" d="M32.465,126.289a2.133,2.133,0,0,1-.664.285,1.337,1.337,0,0,1-.707-.01s-2.321-5.828-2.189-7.8c0-.048,0-.1.006-.151a8.26,8.26,0,0,0-.13-1.321c-.031-.192-.067-.393-.107-.6-.093-.486-.208-1.01-.335-1.544-.056-.235-.114-.472-.173-.709-.583-2.33-1.3-4.626-1.3-4.626s4.188-1.368,4.425-.089a25.505,25.505,0,0,1,.257,5.457,43.323,43.323,0,0,0,.17,6.49,35.8,35.8,0,0,0,.743,4.617" transform="translate(-23.214 -94.325)" fill="#154c95"/>
    <path id="Caminho_241" data-name="Caminho 241" d="M37.144,144.415a8.259,8.259,0,0,0-.13-1.321c-.031-.192-.067-.393-.107-.6-.093-.486-.208-1.01-.335-1.544-.056-.235-.114-.472-.173-.709.083-.711.15-1.2.15-1.2a5.961,5.961,0,0,1,.6,5.374" transform="translate(-31.447 -120.123)" fill="#004483"/>
    <path id="Caminho_242" data-name="Caminho 242" d="M20.556,229.991c.03.373.556.373,1.153.3s.439.079,1.275.084,1.122-.273,1.162-.393-.368-.192-.8-.294l-.163-.039a3.6,3.6,0,0,1-1.229-.8c-.4-.3-.119-1.742-.119-1.742l-1.228-.438s.185,1.452.185,2.252c0,.269-.155.445-.2.679a1.461,1.461,0,0,0-.037.388" transform="translate(-17.757 -195.832)" fill="#aa5f34"/>
    <path id="Caminho_243" data-name="Caminho 243" d="M21.708,248.9c.139-.032.439.079,1.275.084s1.122-.273,1.162-.393-.368-.192-.8-.294l-.005.008a2.345,2.345,0,0,1-1.225.229c-.562-.052-1.136-.282-1.523-.321a1.456,1.456,0,0,0-.037.388c.03.373.386.477,1.153.3" transform="translate(-17.757 -214.438)" fill="#154c95"/>
    <path id="Caminho_244" data-name="Caminho 244" d="M16.916,100.216s-1.363,6.792-1.593,10.488-.518,6.756-.518,6.756a1.806,1.806,0,0,1-.639.088,2.354,2.354,0,0,1-.646-.132s-1.351-5.561-.9-7.787a18.751,18.751,0,0,0-.14-6.126,5.132,5.132,0,0,1,1.7-4.717c.837-.849,2.734,1.43,2.734,1.43" transform="translate(-10.737 -85.182)" fill="#154c95"/>
    <path id="Caminho_245" data-name="Caminho 245" d="M7.145,2.594C7.28,1.489,7.13,0,4.892,0,2.958,0,1.825,2.454,2.27,3.418s-.641,1.2-.982,2.234A7.73,7.73,0,0,1,.42,8.145c-1.528,1.6,1.467,4.062,3.272,3.543C6.98,10.743,7.4,10.6,7.287,8.018,7.227,6.695,6.2,6.182,6.851,5.8c1.58-.925-.013-.7.293-3.2" transform="translate(0 0.001)" fill="#07294e"/>
    <path id="Caminho_246" data-name="Caminho 246" d="M24.421,27.658a6.1,6.1,0,0,0-.742-.123,3.11,3.11,0,0,1-.1-1.335l-1.642-.5c-.079,1.746-.236,1.964-.269,1.991a7.458,7.458,0,0,0-1.087.35s1.048,6,.6,7.142a12.1,12.1,0,0,0-.621,2.161l4.885.061a49.329,49.329,0,0,1,.157-5.319c.225-1.391-1.179-4.426-1.179-4.426" transform="translate(-17.762 -22.202)" fill="#984e28"/>
    <path id="Caminho_247" data-name="Caminho 247" d="M31.113,10.542s-2,0-1.983-1.253-.222-2.09,1.059-2.14,1.521.431,1.615.85-.17,2.512-.692,2.543" transform="translate(-25.162 -6.174)" fill="#aa5f34"/>
    <path id="Caminho_248" data-name="Caminho 248" d="M22.2,45.681c.3-.014.6-.084,1-.112l-.026-1.487a.839.839,0,0,1-.634-.22A13.961,13.961,0,0,0,18.947,40a2.579,2.579,0,0,0-.8-.185s-.092,1.154-.684,1.252a2.344,2.344,0,0,1-2.093-1.148,4.166,4.166,0,0,0-1.523.691,1.99,1.99,0,0,0-.142,1.386,1.886,1.886,0,0,0,.075.309c.073.193.349,1.607.474,2.17l.009.04c.009.038.016.071.023.1v0c.007.03.013.053.019.069l.009.027v0a4.675,4.675,0,0,1,.227,1.893,2.044,2.044,0,0,1-.056.3c-.164.841-.846,2.5-.987,3.261a1,1,0,0,0,.491.416,4.659,4.659,0,0,0,.941.3,9.061,9.061,0,0,0,.958.153c.209.023.433.043.661.056l.1.005c1.472.073,3.119.037,3.334-.663a23.644,23.644,0,0,0-.362-2.954,26.689,26.689,0,0,1,.131-3.613,7.2,7.2,0,0,0,2.454,1.81" transform="translate(-11.661 -34.396)" fill="#6db1c1"/>
    <path id="Caminho_249" data-name="Caminho 249" d="M27.3,5.005s.22.417-.426,1.124A3.492,3.492,0,0,0,26.2,8.1s-1.09-2.048-.508-2.7A1.756,1.756,0,0,1,27.3,5.005" transform="translate(-22.047 -4.278)" fill="#07294e"/>
    <path id="Caminho_250" data-name="Caminho 250" d="M34.389,1.448a2,2,0,0,1,1.947.629,1.609,1.609,0,0,1,.131,1.691s-.344-1.006-.969-1.226a2.681,2.681,0,0,1-1.109-1.093" transform="translate(-29.71 -1.204)" fill="#07294e"/>
    <path id="Caminho_251" data-name="Caminho 251" d="M40.211,26.473s.022.153.4.162c0,0,.315.007.32-.159a1.014,1.014,0,0,0-.718,0" transform="translate(-34.74 -22.818)" fill="#fff"/>
    <path id="Caminho_252" data-name="Caminho 252" d="M17.691,57.318a3.845,3.845,0,0,1-1.141,2.25c-.228-.013-.452-.033-.661-.056a9.075,9.075,0,0,1-.959-.153,4.653,4.653,0,0,1-.941-.3,1,1,0,0,1-.491-.416c.142-.761.823-2.42.987-3.261a2.033,2.033,0,0,0,.033-.22,5.486,5.486,0,0,0-.2-1.976v0l-.027-.1v0c-.006-.021-.014-.054-.023-.1l-.009-.04c-.112-.533-.448-2.172-.523-2.39-.024-.069-.009-.223-.032-.369l.588-.566s3.374,1.441,4.118,3.429-.315,2.913-.715,4.27" transform="translate(-11.661 -42.869)" fill="#4c8997"/>
    <path id="Caminho_253" data-name="Caminho 253" d="M63.669,67.482a9.463,9.463,0,0,1-2.179.474,7.209,7.209,0,0,1-2.478-1.836c-.051-.23-.1-.615.178-.5.39.156,1.833,2.008,2.379,2.047a16.955,16.955,0,0,0,2.1-.182" transform="translate(-50.948 -56.671)" fill="#4c8997"/>
    <path id="Caminho_254" data-name="Caminho 254" d="M87.471,71.436c-.16-.2-1.045-.213-1.394-.1a2.7,2.7,0,0,1-.4.1A13.173,13.173,0,0,1,83.8,71.3a8.314,8.314,0,0,0-1.2-.132,2.8,2.8,0,0,0-.313,1.521c.394-.032.854-.1,1.254-.163,1.082-.183,2.081-.339,2.17-.367a5.147,5.147,0,0,1,.648.037c.8.089,1.276-.564,1.115-.763" transform="translate(-71.081 -61.487)" fill="#984e28"/>
    <path id="Caminho_255" data-name="Caminho 255" d="M68.049,67.729c.033.085.181.131.254.149a.649.649,0,0,1-.053-.217.193.193,0,0,0-.169-.088c-.047.008-.075.048-.033.156m-.069-.237a.433.433,0,0,1,.269,0V67.36a.659.659,0,0,1,.005-.082h1.307a.686.686,0,0,1,.005.082v.256a.658.658,0,0,1-1.153.434h0a1.03,1.03,0,0,1-.408-.192c-.1-.116-.129-.3-.026-.368" transform="translate(-58.675 -58.124)" fill="#78a563"/>
    <path id="Caminho_256" data-name="Caminho 256" d="M74.518,67.36v.256a.661.661,0,0,1-.659.659.613.613,0,0,1-.088-.006.66.66,0,0,0,.57-.652V67.36a.633.633,0,0,0-.005-.082h.177a.655.655,0,0,1,.005.082" transform="translate(-63.734 -58.124)" fill="#a3c690"/>
    <rect id="Retângulo_119" data-name="Retângulo 119" width="0.538" height="0.081" transform="translate(9.964 10.094)" fill="#78a563"/>
    <path id="Caminho_257" data-name="Caminho 257" d="M91.813,67.729c.033.085.181.131.254.149a.654.654,0,0,1-.053-.217.192.192,0,0,0-.169-.088c-.047.008-.075.048-.033.156m-.069-.237a.433.433,0,0,1,.269,0V67.36a.659.659,0,0,1,.005-.082h1.307a.659.659,0,0,1,.005.082v.256a.658.658,0,0,1-1.153.434h0a1.029,1.029,0,0,1-.408-.192c-.1-.116-.129-.3-.026-.368" transform="translate(-79.206 -58.124)" fill="#78a563"/>
    <path id="Caminho_258" data-name="Caminho 258" d="M98.281,67.359v.256a.661.661,0,0,1-.658.659.613.613,0,0,1-.088-.006.66.66,0,0,0,.57-.652v-.256a.587.587,0,0,0-.005-.082h.177a.655.655,0,0,1,.005.082" transform="translate(-84.263 -58.123)" fill="#a3c690"/>
    <rect id="Retângulo_120" data-name="Retângulo 120" width="0.538" height="0.081" transform="translate(13.198 10.094)" fill="#78a563"/>
    <path id="Caminho_259" data-name="Caminho 259" d="M80.932,63.292l.007.164.005.121.033.768,0,.066.017.384h1.058l.024-.384,0-.066.048-.768.007-.121.013-.218,0-.007a.657.657,0,0,0-.395.05.263.263,0,0,1-.245-.01.282.282,0,0,0-.2-.027c-.135.054-.144.121-.251.076a.529.529,0,0,0-.127-.029" transform="translate(-69.92 -54.619)" fill="#da615c"/>
    <path id="Caminho_260" data-name="Caminho 260" d="M82.052,64.085h0v-.014L82.1,63.3l.007-.121.013-.218,0-.007a.843.843,0,0,0-.136-.011.5.5,0,0,0-.259.06.171.171,0,0,1-.095.027.448.448,0,0,1-.15-.037.436.436,0,0,0-.144-.037.144.144,0,0,0-.055.01c-.1.042-.133.091-.19.091a.158.158,0,0,1-.061-.015.532.532,0,0,0-.128-.029l.007.164.005.121.027.632-.027-.632-.005-.121-.007-.164,0-.114h1.229l0,.06-.013.218L82.1,63.3l-.048.768Z" transform="translate(-69.89 -54.346)" fill="#e1d2db"/>
    <path id="Caminho_261" data-name="Caminho 261" d="M82.054,64.793H81l-.017-.384,0-.066-.006-.136-.027-.632-.005-.121-.007-.164a.529.529,0,0,1,.128.029.159.159,0,0,0,.061.015c.057,0,.086-.05.19-.091a.143.143,0,0,1,.055-.01.437.437,0,0,1,.144.037.444.444,0,0,0,.15.037.171.171,0,0,0,.095-.027.5.5,0,0,1,.259-.06.841.841,0,0,1,.136.011l0,.007-.013.218-.007.121-.048.768v.014l0,.052Z" transform="translate(-69.919 -54.619)" fill="#da615c"/>
    <path id="Caminho_262" data-name="Caminho 262" d="M82.078,58.876h-1.23c0-.006,0-.013,0-.019a.615.615,0,1,1,1.231,0c0,.006,0,.013,0,.019" transform="translate(-69.847 -50.318)" fill="#e1d2db"/>
    <path id="Caminho_263" data-name="Caminho 263" d="M78.406,56.024l.054-.007c0-.034-.175-2.311-.2-2.462a.292.292,0,0,0-.2-.219h0l-.861-.153-.009.053.86.152a.237.237,0,0,1,.159.176c.027.15.2,2.452.2,2.46" transform="translate(-66.684 -45.947)" fill="#6db1c1"/>
    <path id="Caminho_264" data-name="Caminho 264" d="M80.986,64.948l.005.121.033.768H82.13l.048-.768.007-.121Z" transform="translate(-69.967 -56.111)" fill="#07294e"/>
    <path id="Caminho_265" data-name="Caminho 265" d="M107.38,67.781c0-.01,0-.189-.3-.254s-.212-.216-.212-.216-.439.215-.352.47.866,0,.866,0" transform="translate(-92.012 -58.153)" fill="#d3dcef"/>
    <path id="Caminho_266" data-name="Caminho 266" d="M105.695,70.706h.887l.152-.641h-1.171Z" transform="translate(-91.2 -60.531)" fill="#da615c"/>
    <path id="Caminho_267" data-name="Caminho 267" d="M74.018,75.15H66.672a.186.186,0,1,1,0-.372h7.347a.186.186,0,0,1,0,.372" transform="translate(-57.44 -64.604)" fill="#09387a"/>
    <path id="Caminho_268" data-name="Caminho 268" d="M20.093,58.242h3.57s1.234,10.994.622,14.968H18.167s2.1-12.1,1.926-14.968" transform="translate(-15.695 -50.318)" fill="#ec8336"/>
    <path id="Caminho_269" data-name="Caminho 269" d="M26.927,60.5a5.4,5.4,0,0,0-2.034-2.255h-.312a62.94,62.94,0,0,1-.906,8.612l-.314,2.05a14.493,14.493,0,0,0,2.851-4.137c.4-1.356,1.459-2.282.715-4.27" transform="translate(-20.182 -50.318)" fill="#e06f26"/>
    <path id="Caminho_270" data-name="Caminho 270" d="M22.084,48.942a17.309,17.309,0,0,1-3.235.758,6.468,6.468,0,0,1-1.17.031,5.853,5.853,0,0,1-2.427-2.48c-1.84-3.478-.045-3.586-.045-3.586a15.452,15.452,0,0,1,3.122,4.441c.061.115.252.117.751.084.534-.035,1.566.116,3.021.1a.809.809,0,0,1,.009.227c-.018.378-.026.427-.026.427" transform="translate(-12.46 -37.724)" fill="#6db1c1"/>
    <path id="Caminho_271" data-name="Caminho 271" d="M52.327,75.814c-.173-.212-1.117-.221-1.489-.093a3.2,3.2,0,0,1-.613.134v0c-1.455.018-2.5-.076-3.036-.041a1.7,1.7,0,0,1-.231,1.51,19.972,19.972,0,0,0,3.256-.706,4.314,4.314,0,0,1,.928.021c.851.09,1.358-.61,1.186-.822" transform="translate(-40.568 -65.346)" fill="#aa5f34"/>
    <path id="Caminho_272" data-name="Caminho 272" d="M20.469,90.022l1.281.064-.063.386-1.242-.129a.124.124,0,0,1-.111-.13l0-.074a.124.124,0,0,1,.13-.116" transform="translate(-17.568 -77.773)" fill="#e06f26"/>
    <path id="Caminho_273" data-name="Caminho 273" d="M23.115,41.114a.274.274,0,0,0-.309.1,14.92,14.92,0,0,1,1.317,2.247l.375-.031a14.524,14.524,0,0,0-1.383-2.319" transform="translate(-19.703 -35.508)" fill="#ec8336"/>
    <path id="Caminho_274" data-name="Caminho 274" d="M31.941,56.464c-.145-.1-.29-.2-.432-.287a2.777,2.777,0,0,1,.133.312Z" transform="translate(-27.222 -48.534)" fill="#e06f26"/>
    <path id="Caminho_275" data-name="Caminho 275" d="M46.529,39.446a8.092,8.092,0,0,1,1.259,2.62l.379-.084A8.118,8.118,0,0,0,46.8,39.475s-.16-.1-.271-.029" transform="translate(-40.198 -34.058)" fill="#ec8336"/>
    <path id="Caminho_276" data-name="Caminho 276" d="M276.647,130.006h0a.146.146,0,0,0,.152-.139,22.427,22.427,0,0,1,2.012-9.545c.035-.069.028-.222-.2-.242-.2-.017-.317.026-.352.094a21.259,21.259,0,0,0-.984,2.7,24.789,24.789,0,0,0-.789,6.994.147.147,0,0,0,.154.135" transform="translate(-238.87 -103.739)" fill="#ec8336"/>
    <path id="Caminho_277" data-name="Caminho 277" d="M242.592,130.006h0a.145.145,0,0,0,.152-.139,22.43,22.43,0,0,1,2.013-9.545c.035-.069.028-.222-.2-.242-.2-.017-.317.026-.352.094a21.263,21.263,0,0,0-.984,2.7,24.777,24.777,0,0,0-.789,6.994.147.147,0,0,0,.154.135" transform="translate(-209.448 -103.739)" fill="#ec8336"/>
    <path id="Caminho_278" data-name="Caminho 278" d="M257.4,130.674a.15.15,0,0,0,.152-.114.14.14,0,0,0-.126-.158,16.146,16.146,0,0,0-4.7-.1.135.135,0,0,0-.1.172.159.159,0,0,0,.193.089,16.211,16.211,0,0,1,4.551.107l.026,0" transform="translate(-218.25 -112.44)" fill="#ec8336"/>
    <path id="Caminho_279" data-name="Caminho 279" d="M254.751,137.324a.15.15,0,0,0,.151-.114.139.139,0,0,0-.126-.158,16.143,16.143,0,0,0-4.7-.1.135.135,0,0,0-.1.172.159.159,0,0,0,.194.089,16.211,16.211,0,0,1,4.551.107l.026,0" transform="translate(-215.961 -118.185)" fill="#ec8336"/>
    <path id="Caminho_280" data-name="Caminho 280" d="M218.716,188.01h-9.5s.221-.917,5.721-.781c3.892.1,3.775.781,3.775.781" transform="translate(-180.753 -161.743)" fill="#ec8336"/>
    <path id="Caminho_281" data-name="Caminho 281" d="M274.469,202.2a27.986,27.986,0,0,1-.816-7.946c0-.076-.155-.144-.24-.146s-.466-.023-.51.042a19.26,19.26,0,0,0,1.362,8.05Z" transform="translate(-235.734 -167.692)" fill="#e06f26"/>
    <path id="Caminho_282" data-name="Caminho 282" d="M225.443,202.2a27.971,27.971,0,0,0,.817-7.946c0-.076.156-.144.241-.146s.466-.023.51.042a19.253,19.253,0,0,1-1.361,8.05Z" transform="translate(-194.769 -167.692)" fill="#e06f26"/>
    <path id="Caminho_283" data-name="Caminho 283" d="M206.613,202.2a27.972,27.972,0,0,0,.816-7.946c0-.076.156-.144.241-.146s.466-.023.51.042a19.258,19.258,0,0,1-1.362,8.05Z" transform="translate(-178.501 -167.692)" fill="#c3571a"/>
    <path id="Caminho_284" data-name="Caminho 284" d="M253.981,202.2a28,28,0,0,1-.817-7.946c0-.076-.155-.144-.24-.146s-.466-.023-.51.042a19.258,19.258,0,0,0,1.362,8.05Z" transform="translate(-218.033 -167.692)" fill="#c3571a"/>
    <path id="Caminho_285" data-name="Caminho 285" d="M207.894,193.349h9.592a.146.146,0,0,0,0-.293h-9.592a.146.146,0,0,0,0,.293" transform="translate(-179.482 -166.789)" fill="#e06f26"/>
    <path id="Caminho_286" data-name="Caminho 286" d="M180.349,141.2s-.555-.346-.8-.293-.9.241-.922.513.942.7,1.655.461.063-.68.063-.68" transform="translate(-154.326 -121.728)" fill="#aa5f34"/>
    <path id="Caminho_287" data-name="Caminho 287" d="M191.774,231.661a.284.284,0,0,1-.163.262h0c-.189.1-.49.024-.851.008-.046,0-.118.087-.155.087h-.051c-.357.009-.319.116-1,.174-.773.066-1.058-.171-1.1-.278-.038-.092.294-.2.665-.314l.054-.017.148-.048c.441-.146.876-.32.985-.767a6.092,6.092,0,0,0-.231-1.8l1.225-.132s.118,1.383.2,1.813a4.724,4.724,0,0,0,.207.61c0,.014.009.027.013.041a1.375,1.375,0,0,1,.063.356" transform="translate(-162.808 -197.704)" fill="#c97342"/>
    <path id="Caminho_288" data-name="Caminho 288" d="M188.451,247.3c.025.058.076.226.4.295h1.23l.011-.005a2.349,2.349,0,0,1,.984-.2,2.92,2.92,0,0,0,.352-.015.459.459,0,0,0,.16-.05h0l.021-.012h0l.018-.01h0a.378.378,0,0,0,.031-.022l.015-.012.014-.013.01-.01.016-.019h0l.009-.012.008-.013h0v0l.006-.011h0l0-.008a.079.079,0,0,0,.005-.012.1.1,0,0,0,.007-.018.07.07,0,0,0,0-.014.142.142,0,0,0,0-.019.1.1,0,0,0,0-.016l0-.01c0-.005,0-.01,0-.016s0-.015,0-.022v0c0-.007,0-.013,0-.019s0-.013,0-.02,0-.013,0-.02,0-.013,0-.02,0-.02,0-.029v-.006c0-.006,0-.012,0-.018s0-.018,0-.027-.006-.031-.009-.046l0-.019c0-.015-.007-.03-.01-.044l-.005-.022c0-.015-.008-.029-.012-.043l-.006-.021c0-.014-.008-.028-.013-.042-.368.086-.881.343-1.4.439l-.023,0a2.236,2.236,0,0,1-.734.005,2.111,2.111,0,0,1-.429-.11c-.37.119-.7.222-.664.313" transform="translate(-162.808 -213.09)" fill="#134680"/>
    <path id="Caminho_289" data-name="Caminho 289" d="M207.766,251.469v-.246l.023,0,.551-.087-.02.039h0l-.013.025-.041.076h0l-.1.2Z" transform="translate(-179.497 -216.963)" fill="#134680"/>
    <path id="Caminho_290" data-name="Caminho 290" d="M189.282,160.558l-3.967-.378s-6.071.027-6.636.829c0,0-1.084.751.141,3.857s2.664,6.209,2.664,6.209a2.807,2.807,0,0,0,.869.061,3.411,3.411,0,0,0,.466-.083,37.326,37.326,0,0,0-.89-6.438c-.612-1.8-.8-1.452.283-1.352s4.571.9,6.173.7.9-3.406.9-3.406" transform="translate(-153.985 -138.386)" fill="#07294e"/>
    <path id="Caminho_291" data-name="Caminho 291" d="M197.393,231.661a.285.285,0,0,1-.162.262h0c-.189.1-.49.024-.851.008-.046,0-.118.087-.155.087h-.051c-.357.009-.319.116-1,.174-.773.066-1.059-.171-1.1-.278-.038-.092.293-.2.664-.314l.054-.017.149-.048c.441-.146.876-.32.984-.767a6.075,6.075,0,0,0-.23-1.8l1.225-.132s.118,1.383.195,1.813a4.787,4.787,0,0,0,.207.61l.012.041a1.357,1.357,0,0,1,.063.356" transform="translate(-167.663 -197.704)" fill="#e0854e"/>
    <path id="Caminho_292" data-name="Caminho 292" d="M195.638,163.036l-3.72-.314s-6.071.026-6.637.8c0,0-.917.574.308,3.582s2.467,6.318,2.467,6.318a3.146,3.146,0,0,0,.607.011.942.942,0,0,0,.558-.17,27.483,27.483,0,0,0-.7-5.862c-.613-1.746-.848-1.569.236-1.471s4.131.857,6.232.455c1.586-.3.649-3.35.649-3.35" transform="translate(-159.787 -140.582)" fill="#154c95"/>
    <path id="Caminho_293" data-name="Caminho 293" d="M194.069,247.286a.035.035,0,0,0,0,.015.433.433,0,0,0,.335.279c.02.006.042.011.065.016h1.23a2.433,2.433,0,0,1,.231-.091,2.241,2.241,0,0,1,.5-.105h0c.1-.009.185-.012.266-.014a1.05,1.05,0,0,0,.533-.076h0l.018-.01h0a.341.341,0,0,0,.032-.022l.015-.012.014-.013.01-.01.01-.01.009-.012.005-.007.008-.013.007-.012.01-.02h0l.005-.013,0-.01v0h0l0-.013a.135.135,0,0,0,0-.015c0-.005,0-.01,0-.016l0-.01h0v-.016a.207.207,0,0,0,0-.023,1.338,1.338,0,0,0-.063-.356c0-.014-.008-.028-.012-.042a7.282,7.282,0,0,0-.705.238,4.561,4.561,0,0,1-.692.2,2.255,2.255,0,0,1-.788,0,2.079,2.079,0,0,1-.4-.105c-.12.038-.235.075-.336.11l-.056.02-.05.019-.046.019-.022.009-.02.009-.037.018-.017.009-.029.018-.019.013-.011.01-.006.005a.072.072,0,0,0-.016.024l0,.006h0Z" transform="translate(-167.664 -213.09)" fill="#154c95"/>
    <path id="Caminho_294" data-name="Caminho 294" d="M213.387,251.223v.246h.393l.159-.3h0l.02-.039-.551.087Z" transform="translate(-184.353 -216.963)" fill="#154c95"/>
    <path id="Caminho_295" data-name="Caminho 295" d="M189.211,100.6a.4.4,0,0,0,.03.1c.157.345,3.424.785,3.833.565a14.238,14.238,0,0,0,.685-3.537c.294-2.215.545-4.651.545-4.651s-1.356.428-1.514,1.151-.189,5.184-.6,5.4a18.585,18.585,0,0,1-2.733.126,1.537,1.537,0,0,0-.25.844" transform="translate(-163.46 -80.409)" fill="#9fc78b"/>
    <path id="Caminho_296" data-name="Caminho 296" d="M220.134,53.734a1.247,1.247,0,0,1,.86-.164.4.4,0,0,0-.182-.086,1.333,1.333,0,0,1,.476.124s1.244-.637,1.82,1c0,0-.1-.123-.236-.263.333.94,0,2.362-1.053,2.615-.682.164-4.288-1.131-1.686-3.221" transform="translate(-189.378 -46.204)" fill="#07294e"/>
    <path id="Caminho_297" data-name="Caminho 297" d="M225.986,82.911a1.887,1.887,0,0,0,1.157.211,1.5,1.5,0,0,0,.771-.739c-.2-.04-.256-.313-.252-1.489l-.09.018-1.514.3s.034.476.035.925c0,.377-.022.734-.108.774" transform="translate(-195.238 -69.888)" fill="#984e28"/>
    <path id="Caminho_298" data-name="Caminho 298" d="M222.135,60.065a4.457,4.457,0,0,0,.551-1.3,1.528,1.528,0,0,0-1.737-1.787,2.168,2.168,0,0,0-.9.34c-.346.234-.846.739-.287,2.124l.145.468Z" transform="translate(-189.645 -49.205)" fill="#07294e"/>
    <path id="Caminho_299" data-name="Caminho 299" d="M220.2,64.878s2,.033,2.006-1.215.261-2.085-1.019-2.159-1.529.4-1.63.819.122,2.514.644,2.555" transform="translate(-189.663 -53.13)" fill="#aa5f34"/>
    <path id="Caminho_300" data-name="Caminho 300" d="M224.986,59.589s.549,1.465,1.391,1.681a1.659,1.659,0,0,0,1.207-.009,8.218,8.218,0,0,1-.366-1.515s-1.818-.854-2.232-.156" transform="translate(-194.374 -51.245)" fill="#07294e"/>
    <path id="Caminho_301" data-name="Caminho 301" d="M216.848,105.527c.035-.142-.265-.249-.338-.122a2.714,2.714,0,0,0-.22.775,5,5,0,0,0,0,1.613Z" transform="translate(-186.801 -91.014)" fill="#78a563"/>
    <path id="Caminho_302" data-name="Caminho 302" d="M219.542,60.686a1.769,1.769,0,0,0-.51.645c-.1.318-.145.972-.335.95,0,0-.413-1,.051-1.558.493-.6.794-.036.794-.036" transform="translate(-188.795 -52.223)" fill="#07294e"/>
    <path id="Caminho_303" data-name="Caminho 303" d="M222.932,80.144s-.038.159-.432.134c0,0-.331-.021-.321-.195a1.066,1.066,0,0,1,.753.061" transform="translate(-191.949 -69.152)" fill="#fff"/>
    <path id="Caminho_304" data-name="Caminho 304" d="M189.264,127.319a.406.406,0,0,0,.03.1c.157.345,3.424.785,3.833.565A9.089,9.089,0,0,0,193.4,124c-.247,1.048-.322,3.2-.9,3.3-.656.115-2.378-.1-3.235.016" transform="translate(-163.513 -107.132)" fill="#78a563"/>
    <path id="Caminho_305" data-name="Caminho 305" d="M215.645,96.2c.812,3.915.133,4.516.554,4.9l.377.165c.44.382.451-.081,1.833.519a22.4,22.4,0,0,0,2.24.887,4.618,4.618,0,0,0,.772.174c.444.052.776-.025.884-.325.314-.872-1.194-3.187-.817-4.768,0-.013.006-.027.009-.041a1.759,1.759,0,0,0,.018-.471,10.038,10.038,0,0,0-1.2-3.257,10.412,10.412,0,0,0-1.357-2.15c-1.679,1-1.831.168-1.831.168s-1.756,2.863-1.479,4.2" transform="translate(-186.278 -79.337)" fill="#9fc78b"/>
    <path id="Caminho_306" data-name="Caminho 306" d="M221.7,119.961h0c.44.381.584-.026,1.967.573a22.4,22.4,0,0,0,2.24.887,4.673,4.673,0,0,1,.772.174c.444.052.776-.025.884-.325.314-.872-1.194-3.187-.817-4.768,0-.013.006-.027.009-.041a1.475,1.475,0,0,0,.018-.471,8.8,8.8,0,0,0-1.13-2.455c-.373.394-3.176-.063-2.514,3.833.2,1.194-1.255,1.665-1.429,2.592" transform="translate(-191.534 -98.088)" fill="#78a563"/>
    <path id="Caminho_307" data-name="Caminho 307" d="M211.9,161.741a2.076,2.076,0,0,0-.9-.032c-.283.115-.848.408-.8.566s.723.241,1.005.083.492.042.838-.073-.146-.544-.146-.544" transform="translate(-181.603 -139.669)" fill="#aa5f34"/>
    <path id="Caminho_308" data-name="Caminho 308" d="M223.706,91.838s2.279.03,2.688,1.13a12.718,12.718,0,0,1-.314,6.127c-.6,1.163-3.99,2.733-4.367,2.8s-.612-.519-.6-.582,3.566-2.938,3.55-3.236-.959-6.236-.959-6.236" transform="translate(-191.029 -79.342)" fill="#9fc78b"/>
    <path id="Caminho_309" data-name="Caminho 309" d="M96.074,151.334h16.241a.432.432,0,0,1,.431.431v.562a.432.432,0,0,1-.431.431H101.58v10.886a5.644,5.644,0,0,1,4.153,1.605H96.709a5.546,5.546,0,0,1,4.124-1.6V152.758H96.074a.432.432,0,0,1-.43-.431v-.562a.432.432,0,0,1,.43-.431" transform="translate(-82.631 -130.743)" fill="#09387a"/>
    <path id="Caminho_310" data-name="Caminho 310" d="M143.546,116.287a8.739,8.739,0,0,0-.9,2.394,5.226,5.226,0,0,0-.608-2.025,8.658,8.658,0,0,1,.138,2.417l.975.13a8.991,8.991,0,0,1,.4-2.916" transform="translate(-122.709 -100.465)" fill="#78a563"/>
    <path id="Caminho_311" data-name="Caminho 311" d="M135.377,118.467a13.855,13.855,0,0,1,.88,2.64l.471-.12a5.37,5.37,0,0,0-1.351-2.52" transform="translate(-116.958 -102.348)" fill="#9fc78b"/>
    <path id="Caminho_312" data-name="Caminho 312" d="M145.592,142.686l0-.01h0v.011" transform="translate(-125.782 -123.263)" fill="#9fc78b"/>
    <path id="Caminho_313" data-name="Caminho 313" d="M146.041,114.33a9.938,9.938,0,0,0-1.771,3.377s.235-2.21-.471-3.07a6.177,6.177,0,0,1,.106,2.994l.907.239a13.365,13.365,0,0,1,1.228-3.541" transform="translate(-124.234 -98.774)" fill="#9fc78b"/>
    <path id="Caminho_314" data-name="Caminho 314" d="M139.857,133.881l.025.587.054,1.226.025.565h1.556l.035-.565.076-1.226.037-.587Z" transform="translate(-120.828 -115.665)" fill="#b63e35"/>
  </g>
</svg>
