<svg id="suplementos" xmlns="http://www.w3.org/2000/svg" xmlns:xlink="http://www.w3.org/1999/xlink" width="53.204" height="34.543" viewBox="0 0 53.204 34.543">
  <defs>
    <clipPath id="clip-path">
      <rect id="Retângulo_131" data-name="Retângulo 131" width="53.203" height="34.543" fill="none"/>
    </clipPath>
  </defs>
  <g id="Grupo_316" data-name="Grupo 316" clip-path="url(#clip-path)">
    <path id="Caminho_315" data-name="Caminho 315" d="M86.109,123.029a24.411,24.411,0,0,0,.755,3.88,17.717,17.717,0,0,0,2.44,2.111l-.681.245a8.9,8.9,0,0,1-2.8-1.833,17.044,17.044,0,0,1-1.107-3.984Z" transform="translate(-73.298 -106.442)" fill="#fa9e68"/>
    <path id="Caminho_316" data-name="Caminho 316" d="M116.012,27.394V47.344a2.527,2.527,0,0,1-2.527,2.527H96.008a2.152,2.152,0,0,1-2.153-2.153V27.394a6.438,6.438,0,0,1,4.157-6.021,1.8,1.8,0,0,0,1.163-1.68V17.717h11.517v2.016a1.733,1.733,0,0,0,1.125,1.626,6.438,6.438,0,0,1,4.2,6.035" transform="translate(-81.202 -15.328)" fill="#e96c22"/>
    <path id="Caminho_317" data-name="Caminho 317" d="M109.8,27.394V47.344a2.528,2.528,0,0,1-2.528,2.527H96.008a2.152,2.152,0,0,1-2.153-2.153V27.394a6.438,6.438,0,0,1,4.157-6.021,1.8,1.8,0,0,0,1.163-1.68V17.717h5.3v2.016a1.732,1.732,0,0,0,1.125,1.626,6.439,6.439,0,0,1,4.2,6.035" transform="translate(-81.202 -15.328)" fill="#f78133"/>
    <path id="Caminho_318" data-name="Caminho 318" d="M141.7.82V3.976H129.03V.82a.819.819,0,0,1,.82-.82h11.033a.819.819,0,0,1,.82.82" transform="translate(-111.634)" fill="#204789"/>
    <path id="Caminho_319" data-name="Caminho 319" d="M141.7,5.128V8.285H129.03V5.128a.824.824,0,0,1,.013-.148h12.645a.824.824,0,0,1,.013.148" transform="translate(-111.634 -4.309)" fill="#1a2c52"/>
    <rect id="Retângulo_123" data-name="Retângulo 123" width="22.157" height="11.931" transform="translate(12.653 13.029)" fill="#facb94"/>
    <rect id="Retângulo_124" data-name="Retângulo 124" width="15.94" height="11.931" transform="translate(12.653 13.029)" fill="#ffd7a2"/>
    <path id="Caminho_320" data-name="Caminho 320" d="M120.511,112.071a3.007,3.007,0,0,0,.554.031,2.194,2.194,0,0,0,2.4-2.466,2.035,2.035,0,0,0-2.236-2.236,3.406,3.406,0,0,0-.721.062Zm-1.589-5.737a14.065,14.065,0,0,1,2.142-.157,4.589,4.589,0,0,1,2.895.752,3.117,3.117,0,0,1,1.191,2.654,3.6,3.6,0,0,1-1.16,2.853,5.089,5.089,0,0,1-3.261.909,13.707,13.707,0,0,1-1.808-.1Z" transform="translate(-102.889 -91.862)" fill="#1a2c52"/>
    <path id="Caminho_321" data-name="Caminho 321" d="M173.2,113.887h.326l.357.974.359-.974h.319l-.542,1.336h-.274Z" transform="translate(-149.85 -98.533)" fill="#1a2c52"/>
    <path id="Caminho_322" data-name="Caminho 322" d="M185.265,110.727h.3v1.326h-.3Zm-.013-.493h.326v.289h-.326Z" transform="translate(-160.276 -95.372)" fill="#1a2c52"/>
    <path id="Caminho_323" data-name="Caminho 323" d="M189.929,112.509v-.7h-.168v-.261h.168v-.364h.3v.364h.357v.261h-.357v.65a.145.145,0,0,0,.163.166.406.406,0,0,0,.188-.045v.249a.531.531,0,0,1-.274.068.34.34,0,0,1-.382-.389" transform="translate(-164.178 -96.196)" fill="#1a2c52"/>
    <path id="Caminho_324" data-name="Caminho 324" d="M198.417,114.528a.873.873,0,0,0-.3-.053c-.191,0-.3.078-.3.211s.113.2.256.2c.2,0,.352-.113.352-.279Zm-.008.555v-.163a.536.536,0,0,1-.43.191.425.425,0,0,1-.472-.414c0-.294.229-.435.538-.435a1.118,1.118,0,0,1,.367.055v-.025c0-.183-.116-.284-.326-.284a.921.921,0,0,0-.379.083l-.083-.244a1.138,1.138,0,0,1,.5-.111.512.512,0,0,1,.583.56v.786Z" transform="translate(-170.88 -98.403)" fill="#1a2c52"/>
    <path id="Caminho_325" data-name="Caminho 325" d="M209.112,113.709h.3v.2a.476.476,0,0,1,.4-.229.417.417,0,0,1,.394.234.542.542,0,0,1,.45-.234.446.446,0,0,1,.464.507v.847h-.3v-.753c0-.211-.1-.324-.269-.324s-.284.115-.284.329v.748h-.3v-.756c0-.206-.1-.321-.269-.321s-.284.126-.284.331v.746h-.3Z" transform="translate(-180.92 -98.355)" fill="#1a2c52"/>
    <path id="Caminho_326" data-name="Caminho 326" d="M226.86,110.727h.3v1.326h-.3Zm-.013-.493h.326v.289h-.326Z" transform="translate(-196.264 -95.372)" fill="#1a2c52"/>
    <path id="Caminho_327" data-name="Caminho 327" d="M232.136,113.709h.3v.206a.477.477,0,0,1,.414-.234.455.455,0,0,1,.472.51v.844h-.3v-.753c0-.206-.1-.324-.284-.324a.3.3,0,0,0-.3.329v.748h-.3Z" transform="translate(-200.84 -98.355)" fill="#1a2c52"/>
    <rect id="Retângulo_125" data-name="Retângulo 125" width="8.709" height="0.311" transform="translate(23.778 18.024)" fill="#1a2c52"/>
    <rect id="Retângulo_126" data-name="Retângulo 126" width="2.85" height="0.311" transform="translate(23.778 18.88)" fill="#1a2c52"/>
    <rect id="Retângulo_127" data-name="Retângulo 127" width="2.85" height="0.311" transform="translate(27.117 18.88)" fill="#1a2c52"/>
    <rect id="Retângulo_128" data-name="Retângulo 128" width="8.709" height="0.311" transform="translate(23.778 20.079)" fill="#1a2c52"/>
    <rect id="Retângulo_129" data-name="Retângulo 129" width="2.85" height="0.311" transform="translate(23.778 20.935)" fill="#1a2c52"/>
    <rect id="Retângulo_130" data-name="Retângulo 130" width="2.85" height="0.311" transform="translate(27.117 20.935)" fill="#1a2c52"/>
    <path id="Caminho_328" data-name="Caminho 328" d="M109.967,57.727a.914.914,0,0,1-.662-.287c-.588-.588-.385-1.829.468-2.681a2.444,2.444,0,0,1,1.675-.763,1.309,1.309,0,0,1,.945.357.782.782,0,0,1-.047,1.267,5.15,5.15,0,0,0-.82.717c-.272.312-.437.876-.738,1.086a1.46,1.46,0,0,1-.82.3" transform="translate(-94.279 -46.715)" fill="#fda25c"/>
    <path id="Caminho_329" data-name="Caminho 329" d="M320.742,26.062s.663-.911,1.052-.911,1.317.017,1.615.342a1.152,1.152,0,0,1,.3.993c-.076.205-2.972-.425-2.972-.425" transform="translate(-277.5 -21.76)" fill="#f78133"/>
    <path id="Caminho_330" data-name="Caminho 330" d="M305.234,29.646c.133-.62.718-.915,1.832-.978.545-.031,1.148.029,2.036.058,1.981.063,3.169,1.453,3.15,2.426-.012.6-.864.964-1.88,1.059a10.358,10.358,0,0,1-1.988-.138c-2.239-.254-3.348-1.5-3.15-2.426" transform="translate(-264.063 -24.795)" fill="#e76519"/>
    <path id="Caminho_331" data-name="Caminho 331" d="M315.143,32.307a1,1,0,0,0-.312,1.4s-.708-.13-.861-.341a.556.556,0,0,0,.044.133,1.942,1.942,0,0,1-.864-.419c-.213-.272.831-3.525,2.523-2.682a1.361,1.361,0,0,1,.941,2c-.606,1.718-.033,1.869-.033,1.869a.842.842,0,0,1-.257.016s-.1-.073-.107-.141a.412.412,0,0,0,.017.142,1.685,1.685,0,0,1-.881-.42,2,2,0,0,1-.211-1.561" transform="translate(-270.908 -26.178)" fill="#122b50"/>
    <path id="Caminho_332" data-name="Caminho 332" d="M319.411,65.973h0c-.005,0,0,0,0,0" transform="translate(-276.343 -57.079)" fill="#fa9e68"/>
    <path id="Caminho_333" data-name="Caminho 333" d="M321.471,53.056a17.594,17.594,0,0,1-2.02.16,5.241,5.241,0,0,0,.432-1.191c.082-.311.151-.643.173-.759a.262.262,0,0,1,.008-.039l1.364.086.082,0a4.634,4.634,0,0,0-.112.526.33.33,0,0,1-.009.065.283.283,0,0,0,0,.061,5.474,5.474,0,0,0,0,.669c.013.22.043.406.091.418" transform="translate(-276.383 -44.321)" fill="#fa9e68"/>
    <path id="Caminho_334" data-name="Caminho 334" d="M321.413,34.049a3.953,3.953,0,0,1-.177-1.241,1.356,1.356,0,0,1,1.9-1.138,1.925,1.925,0,0,1,.694.5c.244.279.558.826-.236,1.887l-.231.368Z" transform="translate(-277.923 -27.281)" fill="#122b50"/>
    <path id="Caminho_335" data-name="Caminho 335" d="M325.276,52.092a.323.323,0,0,1-.009.065.282.282,0,0,0,0,.06,5.483,5.483,0,0,0,0,.669,2.428,2.428,0,0,1-1.325-1.372,2.908,2.908,0,0,1,1.342.578" transform="translate(-280.262 -44.569)" fill="#ea8249"/>
    <path id="Caminho_336" data-name="Caminho 336" d="M325.058,38.627s-1.727-.427-1.445-1.5.25-1.848,1.364-1.621,1.22.692,1.213,1.073-.676,2.13-1.132,2.046" transform="translate(-279.958 -30.687)" fill="#fa9e68"/>
    <path id="Caminho_337" data-name="Caminho 337" d="M323.049,34.764s-.8,1.132-1.575,1.126a1.471,1.471,0,0,1-1.034-.282,2.115,2.115,0,0,0,.989-1.032s1.423-.5,1.62.187" transform="translate(-277.239 -29.761)" fill="#122b50"/>
    <path id="Caminho_338" data-name="Caminho 338" d="M338.727,36.775a1.571,1.571,0,0,1,.291.669c.014.3-.1.867.072.891,0,0,.581-.76.31-1.349-.287-.624-.673-.212-.673-.212" transform="translate(-293.06 -31.702)" fill="#122b50"/>
    <path id="Caminho_339" data-name="Caminho 339" d="M328.173,35.619a3,3,0,0,1-1.707,1.407,3.255,3.255,0,0,0,1.433-1.415c.307-.848.274.008.274.008" transform="translate(-282.452 -30.486)" fill="#122b50"/>
    <path id="Caminho_340" data-name="Caminho 340" d="M332.529,53.794s.022.163.126.2a1.5,1.5,0,0,0,.408.091,1.367,1.367,0,0,0,.132-.145,2.154,2.154,0,0,0-.665-.148" transform="translate(-287.698 -46.54)" fill="#fff"/>
    <path id="Caminho_341" data-name="Caminho 341" d="M308.167,134.266l-.066.272c-.13.541-.251,1.043-.328,1.463a1.751,1.751,0,0,0,.008,1.124c.536.7,0,6.284,0,6.284l-.61.629s-1.061-5.51-1.349-6.373a34.153,34.153,0,0,1-.49-3.78c-.008-.086-.017-.171-.025-.257-.029-.3-.052-.6-.084-.888a18.971,18.971,0,0,1,.108-4.878,2.291,2.291,0,0,0,1.776.993,1.288,1.288,0,0,1,1.449.88c.408,1.077-.005,2.937-.389,4.532" transform="translate(-263.981 -110.623)" fill="#fa9e68"/>
    <path id="Caminho_342" data-name="Caminho 342" d="M311.45,136.931a18.514,18.514,0,0,1-2.534-5.7c-.082-.876.7.553,1.474.29a1.288,1.288,0,0,1,1.449.88c.408,1.077-.005,2.937-.389,4.532" transform="translate(-267.263 -113.289)" fill="#ea8249"/>
    <path id="Caminho_343" data-name="Caminho 343" d="M348.315,96.435l4.11,1.062v.48s-4.09-.048-4.354-.5.244-1.038.244-1.038" transform="translate(-301.079 -83.434)" fill="#fa9e68"/>
    <path id="Caminho_344" data-name="Caminho 344" d="M291.337,72.98c-1.452-.37-3.048-2.622-3.048-2.622L288.7,70a10.689,10.689,0,0,0,2.183,1.359c-.009-.457,0-.873.031-1.252.2-2.577,1.167-3.435,1.432-3.624a.62.62,0,0,1,.068-.043s0,.019,0,.054c0,.077.011.231.018.442.054,1.577.118,6.35-1.095,6.041" transform="translate(-249.422 -57.484)" fill="#ea8249"/>
    <path id="Caminho_345" data-name="Caminho 345" d="M314.795,70.371s-1.477-.035-1.808-.591c-.173-.29-.986-2.115-.986-2.115s-.344,1.377-.463,2.079A2.142,2.142,0,0,0,311.7,70.9a3.126,3.126,0,0,1-3.255.1s-.9-3.482-.561-4.162a1.717,1.717,0,0,0,.424-.743,1.446,1.446,0,0,1,1.148-1.352c.1-.027,1.808-.062,1.938-.03a5.875,5.875,0,0,1,1.229.459,4.427,4.427,0,0,1,.82,1.793,11.13,11.13,0,0,0,.609,1.9c.471.835,1.1,1.138.741,1.515" transform="translate(-266.309 -55.973)" fill="#fa9e68"/>
    <path id="Caminho_346" data-name="Caminho 346" d="M380.854,101.492a5.5,5.5,0,0,1,1.054-.407,2.368,2.368,0,0,1,.8,0,2.247,2.247,0,0,1-.683.407c-.144.024-.42.228-.336.252s.528-.078.534,0-.27.126-.318.186a.572.572,0,0,1-.486.1c-.27-.036-.568-.054-.568-.054Z" transform="translate(-329.508 -87.429)" fill="#fa9e68"/>
    <path id="Caminho_347" data-name="Caminho 347" d="M283.788,85.6l-.41.358s-.728-.532-.763-.75v-.022a1.07,1.07,0,0,1,.846-.715.208.208,0,0,1,.1.026c.2.128.229.661.227.936,0,.1,0,.167,0,.167" transform="translate(-244.513 -73.079)" fill="#ea8249"/>
    <path id="Caminho_348" data-name="Caminho 348" d="M313.155,242.86a.975.975,0,0,0-.447.295c-.093.378-1.271.3-1.271.3-.062-.031-.228-.112-.178-.162.125-.123.413-.224.739-.474a1.442,1.442,0,0,0,.321-.66,2.271,2.271,0,0,0,.025-.513.666.666,0,0,0,.476.36c.2.041.279-.36.279-.36a1.357,1.357,0,0,1,.583.783c.031.215-.289.392-.528.435" transform="translate(-269.287 -209.064)" fill="#fa9e68"/>
    <path id="Caminho_349" data-name="Caminho 349" d="M377.053,210.861a.554.554,0,0,0,.328.489c.347.175.7,1.1.361.867a11.081,11.081,0,0,0-1.441-.54c-.115-.058-.494-.252-.494-.252a.543.543,0,0,1-.247-.6c.064-.191.046-.237.046-.237s.19.171.288.1a1.79,1.79,0,0,1,.878-.394c.218,0,.265.325.279.567" transform="translate(-324.906 -181.943)" fill="#fa9e68"/>
    <path id="Caminho_350" data-name="Caminho 350" d="M320.918,65l-.157-.046c-.028.015-2.225,2.341-2.218,2.954a3.076,3.076,0,0,0,2.148.323,3.246,3.246,0,0,0-.242-1.561A1.415,1.415,0,0,1,320.906,65l.012-.008" transform="translate(-275.597 -56.194)" fill="#ffd7a2"/>
    <path id="Caminho_351" data-name="Caminho 351" d="M309.124,65.013a.912.912,0,0,0-.164.053c-.015.009-.551.849-.725,1.02-1.167,1.145-.734,2.023-.734,2.023a2.4,2.4,0,0,0,1.08-.1,4.292,4.292,0,0,1,.543-2.994" transform="translate(-265.977 -56.248)" fill="#ffd7a2"/>
    <path id="Caminho_352" data-name="Caminho 352" d="M311.753,87.228a7.408,7.408,0,0,0-3.957-.307l-.067-.385a8.49,8.49,0,0,1,4.1.4Z" transform="translate(-266.241 -74.789)" fill="#ffd7a2"/>
    <path id="Caminho_353" data-name="Caminho 353" d="M310.752,110.7s2.04,1.976.948,4.216c0,0-.2-2.012-1.863-1.765-1.526.226-1.53,2.044-1.53,2.044s-1.546-1.441-1.595-2.181l.786-2.217a6.779,6.779,0,0,0,3.255-.1" transform="translate(-265.361 -95.773)" fill="#ffd7a2"/>
    <path id="Caminho_354" data-name="Caminho 354" d="M326.15,136.455l-.192.793s-5.56-2.872-6.279-3.423a8.227,8.227,0,0,1-1.024-2.786c-.527-2.029-1.029-4.1-1.029-4.1s.768-3.73,3.536-2.129c.832.482.423,3.874.286,5.519-.091,1.1-.156,2,.257,2.228a14.217,14.217,0,0,1,3.927,3.955Z" transform="translate(-274.804 -107.636)" fill="#fa9e68"/>
    <path id="Caminho_355" data-name="Caminho 355" d="M316.973,104.7c0,.074-.028.133-.062.133s-.061-.059-.061-.133.027-.133.061-.133.062.06.062.133" transform="translate(-274.133 -90.473)" fill="#ea8249"/>
    <path id="Caminho_356" data-name="Caminho 356" d="M318.541,30.3a.958.958,0,0,1,1-.328,13.8,13.8,0,0,1,1.595.176,2.044,2.044,0,0,1,.8.535l.164-.6s-1.906-.907-2.579-.695a1.444,1.444,0,0,0-.979.913" transform="translate(-275.596 -25.395)" fill="#e76519"/>
    <path id="Caminho_357" data-name="Caminho 357" d="M78.167,76.754A.953.953,0,0,0,77.1,75.717a1.358,1.358,0,0,1,.533.285,1.37,1.37,0,0,0-1.543.233c-.8.667-.3,2.338-.549,2.656s-1.2.381-1.08,1.407,3.022,2.312,2.835,3.161c0,0,1.139-1.674.324-2.438a1.507,1.507,0,0,1,.437.818s.108-.868-.444-1.145a2.037,2.037,0,0,1-.846-1.3c.042-.161,1.4-2.636,1.4-2.636" transform="translate(-64.416 -65.509)" fill="#1a2c52"/>
    <path id="Caminho_358" data-name="Caminho 358" d="M29.741,145.265l.024.042c.189.329.624,1.136,1.1,2.018.226.419.463.855.688,1.265.387.708.74,1.338.945,1.671s.363.576.425.672h0a.157.157,0,0,1,.02.1,5.127,5.127,0,0,0,.014.888,6.809,6.809,0,0,0,2.225,4.41l.576.085s-.815-3.018-1.055-4.725a3.288,3.288,0,0,1-.044-.677,7.063,7.063,0,0,0-.186-1.847,41.4,41.4,0,0,0-1.177-4.275c-.027-.084-.837-3.012-.837-3.012-.679.594-3.158.839-3.158.839a3.094,3.094,0,0,0,.436,2.546" transform="translate(-25.264 -122.752)" fill="#f78133"/>
    <path id="Caminho_359" data-name="Caminho 359" d="M71.313,246.511h-2.4a1.319,1.319,0,0,1,.068-.644c.12-.267.292-.275.022-.693a1.461,1.461,0,0,0,.991.176,2.946,2.946,0,0,0,.417.634c.157.113.857.073.906.528" transform="translate(-59.609 -212.12)" fill="#1c406d"/>
    <path id="Caminho_360" data-name="Caminho 360" d="M33.2,157.89l.024.042c.189.329,1.214,2.221,1.692,3.1a12.8,12.8,0,0,1-.169-4.562Z" transform="translate(-28.727 -135.377)" fill="#e76519"/>
    <path id="Caminho_361" data-name="Caminho 361" d="M87.536,82.216a9.629,9.629,0,0,0-1.443.706c-.651.722-.465,1.664-.093,1.674.239.006.193.4.193.4l2.661-1.126s-.32-1.868-1.318-1.656" transform="translate(-74.114 -71.117)" fill="#1a2c52"/>
    <path id="Caminho_362" data-name="Caminho 362" d="M83.939,116.34a2.192,2.192,0,0,1,.354,1.465,2.545,2.545,0,0,1-1.755.966s1.089-2.432,1.4-2.432" transform="translate(-71.411 -100.655)" fill="#f9d4b0"/>
    <path id="Caminho_363" data-name="Caminho 363" d="M8.393,139.679l.008-.449c-.9.113-3.087-1.07-3.087-1.07a3.115,3.115,0,0,0-1.065,2.4c-.063.868-.459,4.541-.5,5.638-.016.4-.021.681-.023.795h0a.156.156,0,0,1-.038.092,5.141,5.141,0,0,0-.485.744c-1.366,2.542-.652,6-.652,6l.317-.081s1.155-3.581,1.91-5.13a3.243,3.243,0,0,1,.342-.585A7.06,7.06,0,0,0,6,146.4c.558-1.332,2.4-6.718,2.4-6.718" transform="translate(-2.044 -119.533)" fill="#f78133"/>
    <path id="Caminho_364" data-name="Caminho 364" d="M2.416,246.4H.013a1.318,1.318,0,0,1,.068-.644c.12-.267.309-.388.264-.71a.865.865,0,0,0,.749.286,2.635,2.635,0,0,0,.417.54c.157.113.857.073.906.528" transform="translate(0 -212.01)" fill="#1c406d"/>
    <path id="Caminho_365" data-name="Caminho 365" d="M31.954,109.914c-.323.055.053.312-.391.36a8.01,8.01,0,0,0-1.626.253.366.366,0,0,0-.234.19,4.563,4.563,0,0,1-1.086,1.211c-4.184-.19-4.358-2.019-4.358-2.019,2.715-2.637,5.212-4.192,7.119-4.4a2.321,2.321,0,0,1,1.033.3,2.837,2.837,0,0,1,1.107,1.154s-.336,2.739-1.563,2.948" transform="translate(-20.988 -91.281)" fill="#f9d4b0"/>
    <path id="Caminho_366" data-name="Caminho 366" d="M67.915,119.031a8.01,8.01,0,0,0-1.626.253,6.662,6.662,0,0,1,.845-3.656s.642,2.614.781,3.4" transform="translate(-57.34 -100.038)" fill="#f1c099"/>
    <path id="Caminho_367" data-name="Caminho 367" d="M70.091,112.995s-1.589-.087-1.871.911.53,4.979.7,5.39a27.373,27.373,0,0,0,1.87,2.883l.57-.174s-1.034-3.262-1.265-3.585c-.363-.507.467-4.992-.008-5.426" transform="translate(-58.972 -97.759)" fill="#fa9e68"/>
    <path id="Caminho_368" data-name="Caminho 368" d="M87.97,179.4a.9.9,0,0,0,.136.384c.107.131.418.447.423.632,0,0-.016.082-.082.067s-.3-.244-.417-.228a2.3,2.3,0,0,0,.126.475,1.359,1.359,0,0,1-.025.637c-.038.09-.5-.484-.692-.74s0-1.3,0-1.3Z" transform="translate(-75.577 -155.151)" fill="#fa9e68"/>
    <path id="Caminho_369" data-name="Caminho 369" d="M66.275,113.347a4.418,4.418,0,0,0,2.441-.2s.784-2.455-.336-2.337-1.783.47-1.811,1.006a10.306,10.306,0,0,1-.294,1.531" transform="translate(-57.34 -95.867)" fill="#f9d4b0"/>
    <path id="Caminho_370" data-name="Caminho 370" d="M84.719,102.428s.442,1.648,1.107,1.154a1.362,1.362,0,0,1,.234-.546c.175-.3.383-.607.383-.607l-.9-.788-.054-.047a2.372,2.372,0,0,1-.77.834" transform="translate(-73.297 -87.897)" fill="#fa9e68"/>
    <path id="Caminho_371" data-name="Caminho 371" d="M91.624,102.733s-.208.306-.383.607a1.391,1.391,0,0,1-.516-1.395Z" transform="translate(-78.479 -88.201)" fill="#ea834a"/>
    <path id="Caminho_372" data-name="Caminho 372" d="M91.41,92.815s-1.357-.755-.874-1.593.634-1.5,1.521-1.053.869.863.776,1.182-1.057,1.639-1.423,1.465" transform="translate(-78.24 -77.888)" fill="#fa9e68"/>
    <path id="Caminho_373" data-name="Caminho 373" d="M92.147,90.133c-.062-.372-.251-.408-.383-.383a1.085,1.085,0,0,0-1.32-.505,1.848,1.848,0,0,1-1.07.642s.158.293.806.474a1.11,1.11,0,0,0,.64-.051,3.619,3.619,0,0,1-.921.347,2.59,2.59,0,0,0,1.753-.787,1.219,1.219,0,0,1,.067.56c-.056.252-.28.708-.143.767,0,0,.663-.507.57-1.065" transform="translate(-77.325 -77.16)" fill="#1a2c52"/>
    <path id="Caminho_374" data-name="Caminho 374" d="M259,240.4a1.073,1.073,0,0,1-1.069,1.069h-5.049a1.069,1.069,0,0,1,0-2.138h5.049A1.072,1.072,0,0,1,259,240.4" transform="translate(-217.863 -207.063)" fill="#f16012"/>
    <path id="Caminho_375" data-name="Caminho 375" d="M256.394,240.4a1.072,1.072,0,0,1-1.069,1.069h-2.445a1.069,1.069,0,0,1,0-2.138h2.445a1.072,1.072,0,0,1,1.069,1.069" transform="translate(-217.863 -207.063)" fill="#f7c36e"/>
    <path id="Caminho_376" data-name="Caminho 376" d="M284.855,241.424h-1.743a1.086,1.086,0,0,0-.278-.337h2.02a.152.152,0,0,1,.152.152v.034a.152.152,0,0,1-.152.151" transform="translate(-244.703 -208.584)" fill="#ef975f"/>
    <path id="Caminho_377" data-name="Caminho 377" d="M264.2,241.424h-3.073a.152.152,0,0,1-.152-.151v-.034a.152.152,0,0,1,.152-.152h2.8a1.088,1.088,0,0,1,.278.337" transform="translate(-225.794 -208.584)" fill="#efd4a5"/>
    <path id="Caminho_378" data-name="Caminho 378" d="M221.339,224.442a1.138,1.138,0,0,1-.638,1.47l-4.979,1.964a1.133,1.133,0,0,1-.832-2.109l4.979-1.964a1.137,1.137,0,0,1,1.47.638" transform="translate(-185.298 -193.563)" fill="#ffa728"/>
    <path id="Caminho_379" data-name="Caminho 379" d="M218.77,231.957a1.137,1.137,0,0,1-.638,1.47l-2.411.951a1.133,1.133,0,0,1-.831-2.109l2.411-.951a1.137,1.137,0,0,1,1.47.638" transform="translate(-185.298 -200.064)" fill="#ffd7a2"/>
    <path id="Caminho_380" data-name="Caminho 380" d="M243.357,226.735a1.149,1.149,0,0,0-.4-.225l1.992-.786a.161.161,0,0,1,.208.091l.013.034a.161.161,0,0,1-.091.208Z" transform="translate(-210.198 -195.283)" fill="#ffca76"/>
    <path id="Caminho_381" data-name="Caminho 381" d="M221.925,233.057a.162.162,0,0,1-.15-.1l-.013-.034a.161.161,0,0,1,.09-.208l2.757-1.088a1.149,1.149,0,0,1,.4.224l-3.03,1.2a.157.157,0,0,1-.058.011" transform="translate(-191.855 -200.398)" fill="#ffe7c7"/>
  </g>
</svg>
